<?xml version="1.0" standalone="no"?><svg xmlns:xlink="http://www.w3.org/1999/xlink" xmlns="http://www.w3.org/2000/svg" viewBox="0 0 1000 916.6666666666667" preserveAspectRatio="xMaxYMax slice"><g transform="scale(3.787878787878788)"><rect x="0" y="0" width="264" height="242" fill="#fafafa"/><g transform="translate(112.2,2.2) scale(0.8800000000000001) rotate(0)"><path d="M10 5L5 0L0 5L5 10L0 15L5 20L10 15L15 20L20 15L15 10L20 5L15 0L10 5Z" fill="#f8f8f8"/></g><rect x="134.2" y="2.2" width="17.6" height="17.6" fill="#f3f3f3"/><rect x="200.2" y="2.2" width="17.6" height="17.6" fill="#f7f7fd"/><rect x="222.2" y="2.2" width="17.6" height="17.6" fill="#fafafa"/><rect x="231" y="11" width="8.8" height="8.8" fill="#f2f2f2"/><rect x="2.2" y="24.2" width="17.6" height="17.6" fill="#fafafa"/><g transform="translate(11,24.2) scale(0.44000000000000006) rotate(0)"><path d="M10 5L5 0L0 5L5 10L0 15L5 20L10 15L15 20L20 15L15 10L20 5L15 0L10 5Z" fill="#f2f2f2"/></g><g transform="translate(24.2,24.2) scale(0.8800000000000001) rotate(0)"><path d="M10 5L5 0L0 5L5 10L0 15L5 20L10 15L15 20L20 15L15 10L20 5L15 0L10 5Z" fill="#efefef"/></g><g transform="translate(134.2,24.2) scale(0.8800000000000001) rotate(0)"><path d="M10 5L5 0L0 5L5 10L0 15L5 20L10 15L15 20L20 15L15 10L20 5L15 0L10 5Z" fill="#f1f1f1"/></g><rect x="178.2" y="24.2" width="17.6" height="17.6" fill="#f6f7fe"/><rect x="200.2" y="24.2" width="17.6" height="17.6" fill="#eeeeee"/><rect x="200.2" y="46.2" width="17.6" height="17.6" fill="#fafafa"/><g transform="translate(200.2,55) scale(0.44000000000000006) rotate(0)"><path d="M10 5L5 0L0 5L5 10L0 15L5 20L10 15L15 20L20 15L15 10L20 5L15 0L10 5Z" fill="#f9f9f9"/></g><rect x="46.2" y="68.2" width="17.6" height="17.6" fill="#f8f8fc"/><rect x="156.2" y="68.2" width="17.6" height="17.6" fill="#fafafa"/><g transform="translate(222.2,68.2) scale(0.8800000000000001) rotate(0)"><path d="M10 5L5 0L0 5L5 10L0 15L5 20L10 15L15 20L20 15L15 10L20 5L15 0L10 5Z" fill="#f6f7fe"/></g><rect x="244.2" y="68.2" width="17.6" height="17.6" fill="#f6f6f6"/><rect x="46.2" y="90.2" width="17.6" height="17.6" fill="#f9f9f9"/><g transform="translate(178.2,90.2) scale(0.8800000000000001) rotate(0)"><path d="M10 5L5 0L0 5L5 10L0 15L5 20L10 15L15 20L20 15L15 10L20 5L15 0L10 5Z" fill="#eeeeee"/></g><g transform="translate(200.2,90.2) scale(0.8800000000000001) rotate(0)"><path d="M10 5L5 0L0 5L5 10L0 15L5 20L10 15L15 20L20 15L15 10L20 5L15 0L10 5Z" fill="#f6f6f6"/></g><rect x="68.2" y="112.2" width="17.6" height="17.6" fill="#fafafa"/><g transform="translate(68.2,112.2) scale(0.44000000000000006) rotate(0)"><path d="M10 5L5 0L0 5L5 10L0 15L5 20L10 15L15 20L20 15L15 10L20 5L15 0L10 5Z" fill="#f8f9fc"/></g><rect x="77" y="121" width="8.8" height="8.8" fill="#f9f9f9"/><rect x="90.2" y="112.2" width="17.6" height="17.6" fill="#f4f4f4"/><rect x="112.2" y="134.2" width="17.6" height="17.6" fill="#f6f6f6"/><rect x="178.2" y="134.2" width="17.6" height="17.6" fill="#f9f9f9"/><g transform="translate(200.2,134.2) scale(0.8800000000000001) rotate(0)"><path d="M10 5L5 0L0 5L5 10L0 15L5 20L10 15L15 20L20 15L15 10L20 5L15 0L10 5Z" fill="#f7f8fd"/></g><rect x="222.2" y="134.2" width="17.6" height="17.6" fill="#eeeeee"/><rect x="244.2" y="134.2" width="17.6" height="17.6" fill="#f7f8fd"/><rect x="24.2" y="156.2" width="17.6" height="17.6" fill="#f3f3f3"/><rect x="112.2" y="156.2" width="17.6" height="17.6" fill="#f6f7fe"/><rect x="134.2" y="156.2" width="17.6" height="17.6" fill="#fafafa"/><g transform="translate(143,156.2) scale(0.44000000000000006) rotate(0)"><path d="M10 5L5 0L0 5L5 10L0 15L5 20L10 15L15 20L20 15L15 10L20 5L15 0L10 5Z" fill="#f8f8f8"/></g><g transform="translate(156.2,156.2) scale(0.8800000000000001) rotate(0)"><path d="M10 5L5 0L0 5L5 10L0 15L5 20L10 15L15 20L20 15L15 10L20 5L15 0L10 5Z" fill="#eeeeee"/></g><rect x="2.2" y="178.2" width="17.6" height="17.6" fill="#fafafa"/><rect x="2.2" y="187" width="8.8" height="8.8" fill="#f9f9fb"/><g transform="translate(68.2,178.2) scale(0.8800000000000001) rotate(0)"><path d="M10 5L5 0L0 5L5 10L0 15L5 20L10 15L15 20L20 15L15 10L20 5L15 0L10 5Z" fill="#f8f9fc"/></g><rect x="90.2" y="178.2" width="17.6" height="17.6" fill="#f7f8fd"/><g transform="translate(112.2,178.2) scale(0.8800000000000001) rotate(0)"><path d="M10 5L5 0L0 5L5 10L0 15L5 20L10 15L15 20L20 15L15 10L20 5L15 0L10 5Z" fill="#f3f3f3"/></g><rect x="156.2" y="178.2" width="17.6" height="17.6" fill="#efefef"/><g transform="translate(178.2,178.2) scale(0.8800000000000001) rotate(0)"><path d="M10 5L5 0L0 5L5 10L0 15L5 20L10 15L15 20L20 15L15 10L20 5L15 0L10 5Z" fill="#f9f9fb"/></g><g transform="translate(200.2,178.2) scale(0.8800000000000001) rotate(0)"><path d="M10 5L5 0L0 5L5 10L0 15L5 20L10 15L15 20L20 15L15 10L20 5L15 0L10 5Z" fill="#efefef"/></g><rect x="222.2" y="178.2" width="17.6" height="17.6" fill="#f9f9fb"/><rect x="24.2" y="200.2" width="17.6" height="17.6" fill="#fafafa"/><rect x="178.2" y="200.2" width="17.6" height="17.6" fill="#f8f8fc"/><rect x="2.2" y="222.2" width="17.6" height="17.6" fill="#f9f9fb"/><rect x="24.2" y="222.2" width="17.6" height="17.6" fill="#fafafa"/><g transform="translate(24.2,222.2) scale(0.44000000000000006) rotate(0)"><path d="M10 5L5 0L0 5L5 10L0 15L5 20L10 15L15 20L20 15L15 10L20 5L15 0L10 5Z" fill="#f7f7f7"/></g><g transform="translate(33,222.2) scale(0.44000000000000006) rotate(0)"><path d="M10 5L5 0L0 5L5 10L0 15L5 20L10 15L15 20L20 15L15 10L20 5L15 0L10 5Z" fill="#f9f9fb"/></g><rect x="46.2" y="222.2" width="17.6" height="17.6" fill="#fafafa"/><g transform="translate(46.2,222.2) scale(0.44000000000000006) rotate(0)"><path d="M10 5L5 0L0 5L5 10L0 15L5 20L10 15L15 20L20 15L15 10L20 5L15 0L10 5Z" fill="#f5f5f5"/></g><rect x="55" y="222.2" width="8.8" height="8.8" fill="#f7f7fd"/><g transform="translate(55,231) scale(0.44000000000000006) rotate(0)"><path d="M10 5L5 0L0 5L5 10L0 15L5 20L10 15L15 20L20 15L15 10L20 5L15 0L10 5Z" fill="#efefef"/></g><g transform="translate(68.2,222.2) scale(0.8800000000000001) rotate(0)"><path d="M10 5L5 0L0 5L5 10L0 15L5 20L10 15L15 20L20 15L15 10L20 5L15 0L10 5Z" fill="#f8f9fc"/></g><g transform="translate(156.2,222.2) scale(0.8800000000000001) rotate(0)"><path d="M10 5L5 0L0 5L5 10L0 15L5 20L10 15L15 20L20 15L15 10L20 5L15 0L10 5Z" fill="#fafafa"/></g></g></svg>