<?xml version="1.0" standalone="no"?><svg xmlns:xlink="http://www.w3.org/1999/xlink" xmlns="http://www.w3.org/2000/svg" viewBox="0 0 1400 1283.3333333333333" preserveAspectRatio="xMaxYMax slice"><g transform="scale(5.303030303030303)"><rect x="0" y="0" width="264" height="242" fill="#ffffff"/><rect x="2.2" y="2.2" width="17.6" height="17.6" fill="#f8f9fe"/><rect x="24.2" y="2.2" width="17.6" height="17.6" fill="#ffffff"/><rect x="24.2" y="2.2" width="8.8" height="8.8" fill="#fbfbff"/><g transform="translate(90.2,2.2) scale(0.8800000000000001) rotate(0)"><path d="M10 5L5 0L0 5L5 10L0 15L5 20L10 15L15 20L20 15L15 10L20 5L15 0L10 5Z" fill="#fffafc"/></g><rect x="112.2" y="2.2" width="17.6" height="17.6" fill="#fbfcff"/><rect x="134.2" y="2.2" width="17.6" height="17.6" fill="#fefeff"/><g transform="translate(178.2,2.2) scale(0.8800000000000001) rotate(0)"><path d="M10 5L5 0L0 5L5 10L0 15L5 20L10 15L15 20L20 15L15 10L20 5L15 0L10 5Z" fill="#fbfbff"/></g><rect x="200.2" y="2.2" width="17.6" height="17.6" fill="#fff8fb"/><rect x="222.2" y="2.2" width="17.6" height="17.6" fill="#fffbfd"/><g transform="translate(244.2,2.2) scale(0.8800000000000001) rotate(0)"><path d="M10 5L5 0L0 5L5 10L0 15L5 20L10 15L15 20L20 15L15 10L20 5L15 0L10 5Z" fill="#fefeff"/></g><g transform="translate(46.2,24.2) scale(0.8800000000000001) rotate(0)"><path d="M10 5L5 0L0 5L5 10L0 15L5 20L10 15L15 20L20 15L15 10L20 5L15 0L10 5Z" fill="#fff5f9"/></g><rect x="68.2" y="24.2" width="17.6" height="17.6" fill="#ffffff"/><g transform="translate(77,24.2) scale(0.44000000000000006) rotate(0)"><path d="M10 5L5 0L0 5L5 10L0 15L5 20L10 15L15 20L20 15L15 10L20 5L15 0L10 5Z" fill="#f7f8fe"/></g><rect x="68.2" y="33" width="8.8" height="8.8" fill="#fcfdff"/><g transform="translate(90.2,24.2) scale(0.8800000000000001) rotate(0)"><path d="M10 5L5 0L0 5L5 10L0 15L5 20L10 15L15 20L20 15L15 10L20 5L15 0L10 5Z" fill="#fefeff"/></g><g transform="translate(178.2,24.2) scale(0.8800000000000001) rotate(0)"><path d="M10 5L5 0L0 5L5 10L0 15L5 20L10 15L15 20L20 15L15 10L20 5L15 0L10 5Z" fill="#fffcfd"/></g><g transform="translate(200.2,24.2) scale(0.8800000000000001) rotate(0)"><path d="M10 5L5 0L0 5L5 10L0 15L5 20L10 15L15 20L20 15L15 10L20 5L15 0L10 5Z" fill="#ffdfed"/></g><g transform="translate(222.2,24.2) scale(0.8800000000000001) rotate(0)"><path d="M10 5L5 0L0 5L5 10L0 15L5 20L10 15L15 20L20 15L15 10L20 5L15 0L10 5Z" fill="#f7f8fe"/></g><rect x="24.2" y="46.2" width="17.6" height="17.6" fill="#ffffff"/><g transform="translate(24.2,55) scale(0.44000000000000006) rotate(0)"><path d="M10 5L5 0L0 5L5 10L0 15L5 20L10 15L15 20L20 15L15 10L20 5L15 0L10 5Z" fill="#ffebf4"/></g><rect x="68.2" y="46.2" width="17.6" height="17.6" fill="#fff0f7"/><g transform="translate(156.2,46.2) scale(0.8800000000000001) rotate(0)"><path d="M10 5L5 0L0 5L5 10L0 15L5 20L10 15L15 20L20 15L15 10L20 5L15 0L10 5Z" fill="#f9f9fe"/></g><rect x="2.2" y="68.2" width="17.6" height="17.6" fill="#fffcfd"/><rect x="156.2" y="68.2" width="17.6" height="17.6" fill="#fefeff"/><rect x="200.2" y="68.2" width="17.6" height="17.6" fill="#ffffff"/><rect x="200.2" y="68.2" width="8.8" height="8.8" fill="#ffdfed"/><g transform="translate(209,68.2) scale(0.44000000000000006) rotate(0)"><path d="M10 5L5 0L0 5L5 10L0 15L5 20L10 15L15 20L20 15L15 10L20 5L15 0L10 5Z" fill="#f7f8fe"/></g><rect x="222.2" y="68.2" width="17.6" height="17.6" fill="#fefeff"/><g transform="translate(178.2,90.2) scale(0.8800000000000001) rotate(0)"><path d="M10 5L5 0L0 5L5 10L0 15L5 20L10 15L15 20L20 15L15 10L20 5L15 0L10 5Z" fill="#f7f8fe"/></g><rect x="222.2" y="90.2" width="17.6" height="17.6" fill="#fcfcff"/><g transform="translate(244.2,90.2) scale(0.8800000000000001) rotate(0)"><path d="M10 5L5 0L0 5L5 10L0 15L5 20L10 15L15 20L20 15L15 10L20 5L15 0L10 5Z" fill="#fefeff"/></g><rect x="2.2" y="112.2" width="17.6" height="17.6" fill="#fff8fb"/><g transform="translate(90.2,112.2) scale(0.8800000000000001) rotate(0)"><path d="M10 5L5 0L0 5L5 10L0 15L5 20L10 15L15 20L20 15L15 10L20 5L15 0L10 5Z" fill="#f6f7fe"/></g><g transform="translate(134.2,112.2) scale(0.8800000000000001) rotate(0)"><path d="M10 5L5 0L0 5L5 10L0 15L5 20L10 15L15 20L20 15L15 10L20 5L15 0L10 5Z" fill="#fafbfe"/></g><rect x="156.2" y="112.2" width="17.6" height="17.6" fill="#ffffff"/><g transform="translate(165,121) scale(0.44000000000000006) rotate(0)"><path d="M10 5L5 0L0 5L5 10L0 15L5 20L10 15L15 20L20 15L15 10L20 5L15 0L10 5Z" fill="#ffdcec"/></g><rect x="24.2" y="134.2" width="17.6" height="17.6" fill="#fff1f7"/><g transform="translate(90.2,134.2) scale(0.8800000000000001) rotate(0)"><path d="M10 5L5 0L0 5L5 10L0 15L5 20L10 15L15 20L20 15L15 10L20 5L15 0L10 5Z" fill="#fbfbff"/></g><rect x="200.2" y="134.2" width="17.6" height="17.6" fill="#f8f9fe"/><g transform="translate(222.2,134.2) scale(0.8800000000000001) rotate(0)"><path d="M10 5L5 0L0 5L5 10L0 15L5 20L10 15L15 20L20 15L15 10L20 5L15 0L10 5Z" fill="#ffecf4"/></g><g transform="translate(2.2,156.2) scale(0.8800000000000001) rotate(0)"><path d="M10 5L5 0L0 5L5 10L0 15L5 20L10 15L15 20L20 15L15 10L20 5L15 0L10 5Z" fill="#f8f9fe"/></g><rect x="68.2" y="156.2" width="17.6" height="17.6" fill="#ffffff"/><rect x="68.2" y="156.2" width="8.8" height="8.8" fill="#ffe2ef"/><rect x="77" y="156.2" width="8.8" height="8.8" fill="#ffffff"/><rect x="68.2" y="165" width="8.8" height="8.8" fill="#ffecf5"/><g transform="translate(200.2,156.2) scale(0.8800000000000001) rotate(0)"><path d="M10 5L5 0L0 5L5 10L0 15L5 20L10 15L15 20L20 15L15 10L20 5L15 0L10 5Z" fill="#fff0f7"/></g><rect x="222.2" y="156.2" width="17.6" height="17.6" fill="#fbfbff"/><g transform="translate(2.2,178.2) scale(0.8800000000000001) rotate(0)"><path d="M10 5L5 0L0 5L5 10L0 15L5 20L10 15L15 20L20 15L15 10L20 5L15 0L10 5Z" fill="#ffe8f2"/></g><rect x="24.2" y="178.2" width="17.6" height="17.6" fill="#fffdfe"/><g transform="translate(90.2,178.2) scale(0.8800000000000001) rotate(0)"><path d="M10 5L5 0L0 5L5 10L0 15L5 20L10 15L15 20L20 15L15 10L20 5L15 0L10 5Z" fill="#f7f8fe"/></g><rect x="178.2" y="178.2" width="17.6" height="17.6" fill="#ffffff"/><g transform="translate(187,178.2) scale(0.44000000000000006) rotate(0)"><path d="M10 5L5 0L0 5L5 10L0 15L5 20L10 15L15 20L20 15L15 10L20 5L15 0L10 5Z" fill="#fafafe"/></g><g transform="translate(178.2,187) scale(0.44000000000000006) rotate(0)"><path d="M10 5L5 0L0 5L5 10L0 15L5 20L10 15L15 20L20 15L15 10L20 5L15 0L10 5Z" fill="#f7f8fe"/></g><rect x="187" y="187" width="8.8" height="8.8" fill="#ffe6f1"/><rect x="200.2" y="178.2" width="17.6" height="17.6" fill="#fcfcff"/><g transform="translate(244.2,178.2) scale(0.8800000000000001) rotate(0)"><path d="M10 5L5 0L0 5L5 10L0 15L5 20L10 15L15 20L20 15L15 10L20 5L15 0L10 5Z" fill="#fdfdff"/></g><rect x="24.2" y="200.2" width="17.6" height="17.6" fill="#fffcfd"/><rect x="90.2" y="200.2" width="17.6" height="17.6" fill="#ffffff"/><rect x="99" y="200.2" width="8.8" height="8.8" fill="#f7f8fe"/><rect x="112.2" y="200.2" width="17.6" height="17.6" fill="#fff1f7"/><rect x="156.2" y="200.2" width="17.6" height="17.6" fill="#fefeff"/><g transform="translate(200.2,200.2) scale(0.8800000000000001) rotate(0)"><path d="M10 5L5 0L0 5L5 10L0 15L5 20L10 15L15 20L20 15L15 10L20 5L15 0L10 5Z" fill="#ffe8f2"/></g><rect x="244.2" y="200.2" width="17.6" height="17.6" fill="#fdfdff"/><rect x="24.2" y="222.2" width="17.6" height="17.6" fill="#ffffff"/><rect x="24.2" y="231" width="8.8" height="8.8" fill="#fff7fa"/><g transform="translate(68.2,222.2) scale(0.8800000000000001) rotate(0)"><path d="M10 5L5 0L0 5L5 10L0 15L5 20L10 15L15 20L20 15L15 10L20 5L15 0L10 5Z" fill="#fdfdff"/></g><g transform="translate(90.2,222.2) scale(0.8800000000000001) rotate(0)"><path d="M10 5L5 0L0 5L5 10L0 15L5 20L10 15L15 20L20 15L15 10L20 5L15 0L10 5Z" fill="#ffe4f0"/></g><rect x="178.2" y="222.2" width="17.6" height="17.6" fill="#ffffff"/><rect x="187" y="222.2" width="8.8" height="8.8" fill="#f8f9fe"/></g></svg>