<?xml version="1.0" standalone="no"?><svg xmlns:xlink="http://www.w3.org/1999/xlink" xmlns="http://www.w3.org/2000/svg" viewBox="0 0 1600 1466.678146191752" preserveAspectRatio="xMaxYMax slice"><g transform="scale(4.051597088927491)"><rect x="0" y="0" width="394.9090909090909" height="362" fill="#14213d"/><rect x="3.29" y="36.2" width="26.33" height="26.33" fill="#454b69"/><rect x="167.84" y="36.2" width="26.33" height="26.33" fill="#16233f"/><rect x="332.38" y="36.2" width="26.33" height="26.33" fill="#333c59"/><rect x="365.2909090909091" y="36.199999999999996" width="26.327272727272724" height="26.327272727272724" fill="#14213d"/><g transform="translate(365.29,36.2) scale(0.658) rotate(0)"><path d="M10 5L5 0L0 5L5 10L0 15L5 20L10 15L15 20L20 15L15 10L20 5L15 0L10 5Z" fill="#384261"/></g><rect x="365.29" y="49.36" width="13.16" height="13.16" fill="#343d5a"/><rect x="3.29" y="69.11" width="26.33" height="26.33" fill="#15223e"/><rect x="36.199999999999996" y="69.10909090909091" width="26.327272727272724" height="26.327272727272724" fill="#14213d"/><g transform="translate(36.2,82.27) scale(0.658) rotate(0)"><path d="M10 5L5 0L0 5L5 10L0 15L5 20L10 15L15 20L20 15L15 10L20 5L15 0L10 5Z" fill="#2f3956"/></g><rect x="167.83636363636361" y="69.10909090909091" width="26.327272727272724" height="26.327272727272724" fill="#14213d"/><g transform="translate(167.84,69.11) scale(0.658) rotate(0)"><path d="M10 5L5 0L0 5L5 10L0 15L5 20L10 15L15 20L20 15L15 10L20 5L15 0L10 5Z" fill="#5e6487"/></g><g transform="translate(167.84,82.27) scale(0.658) rotate(0)"><path d="M10 5L5 0L0 5L5 10L0 15L5 20L10 15L15 20L20 15L15 10L20 5L15 0L10 5Z" fill="#4d5576"/></g><g transform="translate(233.65,69.11) scale(1.3165) rotate(0)"><path d="M10 5L5 0L0 5L5 10L0 15L5 20L10 15L15 20L20 15L15 10L20 5L15 0L10 5Z" fill="#16233f"/></g><g transform="translate(266.56,69.11) scale(1.3165) rotate(0)"><path d="M10 5L5 0L0 5L5 10L0 15L5 20L10 15L15 20L20 15L15 10L20 5L15 0L10 5Z" fill="#4a4f6e"/></g><rect x="299.47272727272724" y="69.10909090909091" width="26.327272727272724" height="26.327272727272724" fill="#14213d"/><rect x="299.47" y="82.27" width="13.16" height="13.16" fill="#565e7f"/><rect x="312.64" y="82.27" width="13.16" height="13.16" fill="#535776"/><rect x="365.2909090909091" y="69.10909090909091" width="26.327272727272724" height="26.327272727272724" fill="#14213d"/><rect x="3.29" y="102.02" width="26.33" height="26.33" fill="#424b6b"/><rect x="36.2" y="102.02" width="26.33" height="26.33" fill="#666c8f"/><rect x="134.9272727272727" y="102.01818181818182" width="26.327272727272724" height="26.327272727272724" fill="#14213d"/><rect x="134.93" y="102.02" width="13.16" height="13.16" fill="#434967"/><g transform="translate(134.93,115.18) scale(0.658) rotate(0)"><path d="M10 5L5 0L0 5L5 10L0 15L5 20L10 15L15 20L20 15L15 10L20 5L15 0L10 5Z" fill="#3d4766"/></g><g transform="translate(69.11,134.93) scale(1.3165) rotate(0)"><path d="M10 5L5 0L0 5L5 10L0 15L5 20L10 15L15 20L20 15L15 10L20 5L15 0L10 5Z" fill="#515675"/></g><rect x="167.84" y="134.93" width="26.33" height="26.33" fill="#2c3553"/><rect x="3.290909090909091" y="167.83636363636361" width="26.327272727272724" height="26.327272727272724" fill="#14213d"/><g transform="translate(3.29,181) scale(0.658) rotate(0)"><path d="M10 5L5 0L0 5L5 10L0 15L5 20L10 15L15 20L20 15L15 10L20 5L15 0L10 5Z" fill="#454e6e"/></g><rect x="69.10909090909091" y="167.83636363636361" width="26.327272727272724" height="26.327272727272724" fill="#14213d"/><rect x="69.11" y="167.84" width="13.16" height="13.16" fill="#404a69"/><g transform="translate(69.11,181) scale(0.658) rotate(0)"><path d="M10 5L5 0L0 5L5 10L0 15L5 20L10 15L15 20L20 15L15 10L20 5L15 0L10 5Z" fill="#5b6284"/></g><g transform="translate(82.27,181) scale(0.658) rotate(0)"><path d="M10 5L5 0L0 5L5 10L0 15L5 20L10 15L15 20L20 15L15 10L20 5L15 0L10 5Z" fill="#3a4463"/></g><rect x="102.01818181818182" y="167.83636363636361" width="26.327272727272724" height="26.327272727272724" fill="#14213d"/><rect x="102.02" y="167.84" width="13.16" height="13.16" fill="#303a57"/><g transform="translate(115.18,167.84) scale(0.658) rotate(0)"><path d="M10 5L5 0L0 5L5 10L0 15L5 20L10 15L15 20L20 15L15 10L20 5L15 0L10 5Z" fill="#323d5b"/></g><rect x="115.18" y="181" width="13.16" height="13.16" fill="#434968"/><rect x="167.84" y="167.84" width="26.33" height="26.33" fill="#192541"/><rect x="200.74545454545452" y="167.83636363636361" width="26.327272727272724" height="26.327272727272724" fill="#14213d"/><rect x="213.91" y="167.84" width="13.16" height="13.16" fill="#5c6385"/><g transform="translate(213.91,181) scale(0.658) rotate(0)"><path d="M10 5L5 0L0 5L5 10L0 15L5 20L10 15L15 20L20 15L15 10L20 5L15 0L10 5Z" fill="#15223e"/></g><rect x="102.01818181818182" y="200.74545454545452" width="26.327272727272724" height="26.327272727272724" fill="#14213d"/><rect x="102.02" y="213.91" width="13.16" height="13.16" fill="#25314e"/><rect x="102.01818181818182" y="233.65454545454543" width="26.327272727272724" height="26.327272727272724" fill="#14213d"/><g transform="translate(115.18,233.65) scale(0.658) rotate(0)"><path d="M10 5L5 0L0 5L5 10L0 15L5 20L10 15L15 20L20 15L15 10L20 5L15 0L10 5Z" fill="#4a5273"/></g><g transform="translate(115.18,246.82) scale(0.658) rotate(0)"><path d="M10 5L5 0L0 5L5 10L0 15L5 20L10 15L15 20L20 15L15 10L20 5L15 0L10 5Z" fill="#343d5a"/></g><rect x="200.75" y="233.65" width="26.33" height="26.33" fill="#293350"/><g transform="translate(266.56,233.65) scale(1.3165) rotate(0)"><path d="M10 5L5 0L0 5L5 10L0 15L5 20L10 15L15 20L20 15L15 10L20 5L15 0L10 5Z" fill="#16223f"/></g><rect x="3.29" y="266.56" width="26.33" height="26.33" fill="#475070"/><g transform="translate(69.11,266.56) scale(1.3165) rotate(0)"><path d="M10 5L5 0L0 5L5 10L0 15L5 20L10 15L15 20L20 15L15 10L20 5L15 0L10 5Z" fill="#71779a"/></g><rect x="299.47272727272724" y="266.56363636363636" width="26.327272727272724" height="26.327272727272724" fill="#14213d"/><g transform="translate(312.64,266.56) scale(0.658) rotate(0)"><path d="M10 5L5 0L0 5L5 10L0 15L5 20L10 15L15 20L20 15L15 10L20 5L15 0L10 5Z" fill="#25304c"/></g><rect x="3.29" y="299.47" width="26.33" height="26.33" fill="#2f3a58"/><rect x="36.199999999999996" y="299.47272727272724" width="26.327272727272724" height="26.327272727272724" fill="#14213d"/><rect x="36.2" y="299.47" width="13.16" height="13.16" fill="#535776"/><rect x="49.36" y="299.47" width="13.16" height="13.16" fill="#16233f"/><g transform="translate(49.36,312.64) scale(0.658) rotate(0)"><path d="M10 5L5 0L0 5L5 10L0 15L5 20L10 15L15 20L20 15L15 10L20 5L15 0L10 5Z" fill="#495272"/></g><rect x="69.10909090909091" y="299.47272727272724" width="26.327272727272724" height="26.327272727272724" fill="#14213d"/><rect x="69.11" y="299.47" width="13.16" height="13.16" fill="#26314e"/><g transform="translate(82.27,299.47) scale(0.658) rotate(0)"><path d="M10 5L5 0L0 5L5 10L0 15L5 20L10 15L15 20L20 15L15 10L20 5L15 0L10 5Z" fill="#192642"/></g><g transform="translate(69.11,312.64) scale(0.658) rotate(0)"><path d="M10 5L5 0L0 5L5 10L0 15L5 20L10 15L15 20L20 15L15 10L20 5L15 0L10 5Z" fill="#454e6e"/></g><g transform="translate(167.84,299.47) scale(1.3165) rotate(0)"><path d="M10 5L5 0L0 5L5 10L0 15L5 20L10 15L15 20L20 15L15 10L20 5L15 0L10 5Z" fill="#172440"/></g><rect x="233.65454545454543" y="299.47272727272724" width="26.327272727272724" height="26.327272727272724" fill="#14213d"/><g transform="translate(233.65,312.64) scale(0.658) rotate(0)"><path d="M10 5L5 0L0 5L5 10L0 15L5 20L10 15L15 20L20 15L15 10L20 5L15 0L10 5Z" fill="#525675"/></g><rect x="299.47" y="299.47" width="26.33" height="26.33" fill="#15223e"/><rect x="332.3818181818182" y="299.47272727272724" width="26.327272727272724" height="26.327272727272724" fill="#14213d"/><g transform="translate(332.38,299.47) scale(0.658) rotate(0)"><path d="M10 5L5 0L0 5L5 10L0 15L5 20L10 15L15 20L20 15L15 10L20 5L15 0L10 5Z" fill="#3e4563"/></g><rect x="345.55" y="299.47" width="13.16" height="13.16" fill="#252f4c"/><rect x="345.55" y="312.64" width="13.16" height="13.16" fill="#25304d"/><rect x="3.290909090909091" y="332.3818181818182" width="26.327272727272724" height="26.327272727272724" fill="#14213d"/><g transform="translate(36.2,332.38) scale(1.3165) rotate(0)"><path d="M10 5L5 0L0 5L5 10L0 15L5 20L10 15L15 20L20 15L15 10L20 5L15 0L10 5Z" fill="#343e5d"/></g><rect x="69.11" y="332.38" width="26.33" height="26.33" fill="#172440"/><rect x="200.74545454545452" y="332.3818181818182" width="26.327272727272724" height="26.327272727272724" fill="#14213d"/><rect x="200.75" y="332.38" width="13.16" height="13.16" fill="#4d5576"/><g transform="translate(200.75,345.55) scale(0.658) rotate(0)"><path d="M10 5L5 0L0 5L5 10L0 15L5 20L10 15L15 20L20 15L15 10L20 5L15 0L10 5Z" fill="#4a506e"/></g><g transform="translate(213.91,345.55) scale(0.658) rotate(0)"><path d="M10 5L5 0L0 5L5 10L0 15L5 20L10 15L15 20L20 15L15 10L20 5L15 0L10 5Z" fill="#494f6d"/></g><rect x="299.47272727272724" y="332.3818181818182" width="26.327272727272724" height="26.327272727272724" fill="#14213d"/></g></svg>