<?xml version="1.0" standalone="no"?><svg xmlns:xlink="http://www.w3.org/1999/xlink" xmlns="http://www.w3.org/2000/svg" viewBox="0 0 1500 1374.9670792731104" preserveAspectRatio="xMaxYMax slice"><g transform="scale(4.593589798555776)"><rect x="0" y="0" width="326.5450909090909" height="299.33299999999997" fill="#000000"/><g transform="translate(2.72,2.72) scale(1.0885) rotate(0)"><path d="M10 5L5 0L0 5L5 10L0 15L5 20L10 15L15 20L20 15L15 10L20 5L15 0L10 5Z" fill="#c1c2c7"/></g><rect x="29.93" y="2.72" width="21.77" height="21.77" fill="#060606"/><g transform="translate(84.36,2.72) scale(1.0885) rotate(0)"><path d="M10 5L5 0L0 5L5 10L0 15L5 20L10 15L15 20L20 15L15 10L20 5L15 0L10 5Z" fill="#a6a7ab"/></g><g transform="translate(247.63,2.72) scale(1.0885) rotate(0)"><path d="M10 5L5 0L0 5L5 10L0 15L5 20L10 15L15 20L20 15L15 10L20 5L15 0L10 5Z" fill="#343434"/></g><rect x="302.05420909090907" y="29.9333" width="21.769672727272727" height="21.769672727272727" fill="#000000"/><g transform="translate(302.05,40.82) scale(0.544) rotate(0)"><path d="M10 5L5 0L0 5L5 10L0 15L5 20L10 15L15 20L20 15L15 10L20 5L15 0L10 5Z" fill="#d6d7dd"/></g><rect x="312.94" y="40.82" width="10.88" height="10.88" fill="#2f2f2f"/><g transform="translate(2.72,57.15) scale(1.0885) rotate(0)"><path d="M10 5L5 0L0 5L5 10L0 15L5 20L10 15L15 20L20 15L15 10L20 5L15 0L10 5Z" fill="#ebecf3"/></g><rect x="29.9333" y="57.14539090909091" width="21.769672727272727" height="21.769672727272727" fill="#000000"/><rect x="84.35748181818181" y="57.14539090909091" width="21.769672727272727" height="21.769672727272727" fill="#000000"/><rect x="95.24" y="57.15" width="10.88" height="10.88" fill="#dbdce3"/><rect x="111.57" y="57.15" width="21.77" height="21.77" fill="#d9dae0"/><g transform="translate(138.78,57.15) scale(1.0885) rotate(0)"><path d="M10 5L5 0L0 5L5 10L0 15L5 20L10 15L15 20L20 15L15 10L20 5L15 0L10 5Z" fill="#4b4b4d"/></g><rect x="247.63" y="57.15" width="21.77" height="21.77" fill="#6e6e6e"/><rect x="2.72" y="84.36" width="21.77" height="21.77" fill="#acacac"/><g transform="translate(111.57,84.36) scale(1.0885) rotate(0)"><path d="M10 5L5 0L0 5L5 10L0 15L5 20L10 15L15 20L20 15L15 10L20 5L15 0L10 5Z" fill="#333333"/></g><g transform="translate(193.21,84.36) scale(1.0885) rotate(0)"><path d="M10 5L5 0L0 5L5 10L0 15L5 20L10 15L15 20L20 15L15 10L20 5L15 0L10 5Z" fill="#636366"/></g><rect x="2.72" y="111.57" width="21.77" height="21.77" fill="#6c6d70"/><rect x="138.78" y="111.57" width="21.77" height="21.77" fill="#e3e3e3"/><rect x="220.42" y="111.57" width="21.77" height="21.77" fill="#464646"/><g transform="translate(247.63,111.57) scale(1.0885) rotate(0)"><path d="M10 5L5 0L0 5L5 10L0 15L5 20L10 15L15 20L20 15L15 10L20 5L15 0L10 5Z" fill="#9a9b9f"/></g><rect x="29.9333" y="138.78166363636365" width="21.769672727272727" height="21.769672727272727" fill="#000000"/><rect x="111.57" y="138.78" width="21.77" height="21.77" fill="#727272"/><g transform="translate(165.99,138.78) scale(1.0885) rotate(0)"><path d="M10 5L5 0L0 5L5 10L0 15L5 20L10 15L15 20L20 15L15 10L20 5L15 0L10 5Z" fill="#e0e1e7"/></g><rect x="302.05" y="138.78" width="21.77" height="21.77" fill="#ecedf4"/><rect x="2.721209090909091" y="165.99375454545455" width="21.769672727272727" height="21.769672727272727" fill="#000000"/><rect x="2.72" y="165.99" width="10.88" height="10.88" fill="#595959"/><g transform="translate(13.61,165.99) scale(0.544) rotate(0)"><path d="M10 5L5 0L0 5L5 10L0 15L5 20L10 15L15 20L20 15L15 10L20 5L15 0L10 5Z" fill="#777777"/></g><g transform="translate(2.72,176.88) scale(0.544) rotate(0)"><path d="M10 5L5 0L0 5L5 10L0 15L5 20L10 15L15 20L20 15L15 10L20 5L15 0L10 5Z" fill="#0f0f10"/></g><rect x="13.61" y="176.88" width="10.88" height="10.88" fill="#010101"/><rect x="29.93" y="165.99" width="21.77" height="21.77" fill="#828286"/><g transform="translate(57.15,165.99) scale(1.0885) rotate(0)"><path d="M10 5L5 0L0 5L5 10L0 15L5 20L10 15L15 20L20 15L15 10L20 5L15 0L10 5Z" fill="#0f0f10"/></g><g transform="translate(111.57,165.99) scale(1.0885) rotate(0)"><path d="M10 5L5 0L0 5L5 10L0 15L5 20L10 15L15 20L20 15L15 10L20 5L15 0L10 5Z" fill="#535353"/></g><rect x="111.57" y="193.21" width="21.77" height="21.77" fill="#a2a2a7"/><rect x="138.78166363636365" y="193.20584545454545" width="21.769672727272727" height="21.769672727272727" fill="#000000"/><rect x="149.67" y="193.21" width="10.88" height="10.88" fill="#2e2e30"/><g transform="translate(2.72,220.42) scale(1.0885) rotate(0)"><path d="M10 5L5 0L0 5L5 10L0 15L5 20L10 15L15 20L20 15L15 10L20 5L15 0L10 5Z" fill="#6c6c6c"/></g><rect x="57.14539090909091" y="220.41793636363636" width="21.769672727272727" height="21.769672727272727" fill="#000000"/><g transform="translate(68.03,220.42) scale(0.544) rotate(0)"><path d="M10 5L5 0L0 5L5 10L0 15L5 20L10 15L15 20L20 15L15 10L20 5L15 0L10 5Z" fill="#606060"/></g><rect x="84.36" y="220.42" width="21.77" height="21.77" fill="#737477"/><rect x="302.05420909090907" y="220.41793636363636" width="21.769672727272727" height="21.769672727272727" fill="#000000"/><rect x="302.05" y="220.42" width="10.88" height="10.88" fill="#888888"/><g transform="translate(312.94,220.42) scale(0.544) rotate(0)"><path d="M10 5L5 0L0 5L5 10L0 15L5 20L10 15L15 20L20 15L15 10L20 5L15 0L10 5Z" fill="#171718"/></g><rect x="312.94" y="231.3" width="10.88" height="10.88" fill="#d4d4da"/><rect x="29.93" y="247.63" width="21.77" height="21.77" fill="#b1b1b1"/><g transform="translate(57.15,247.63) scale(1.0885) rotate(0)"><path d="M10 5L5 0L0 5L5 10L0 15L5 20L10 15L15 20L20 15L15 10L20 5L15 0L10 5Z" fill="#292929"/></g><g transform="translate(111.57,247.63) scale(1.0885) rotate(0)"><path d="M10 5L5 0L0 5L5 10L0 15L5 20L10 15L15 20L20 15L15 10L20 5L15 0L10 5Z" fill="#8c8c8c"/></g><rect x="193.21" y="247.63" width="21.77" height="21.77" fill="#1f1f20"/><g transform="translate(29.93,274.84) scale(1.0885) rotate(0)"><path d="M10 5L5 0L0 5L5 10L0 15L5 20L10 15L15 20L20 15L15 10L20 5L15 0L10 5Z" fill="#b4b5ba"/></g><g transform="translate(220.42,274.84) scale(1.0885) rotate(0)"><path d="M10 5L5 0L0 5L5 10L0 15L5 20L10 15L15 20L20 15L15 10L20 5L15 0L10 5Z" fill="#060606"/></g><rect x="274.84" y="274.84" width="21.77" height="21.77" fill="#333333"/><rect x="302.05420909090907" y="274.8421181818182" width="21.769672727272727" height="21.769672727272727" fill="#000000"/><g transform="translate(312.94,274.84) scale(0.544) rotate(0)"><path d="M10 5L5 0L0 5L5 10L0 15L5 20L10 15L15 20L20 15L15 10L20 5L15 0L10 5Z" fill="#c8c8c8"/></g></g></svg>