<?xml version="1.0" standalone="no"?><svg xmlns:xlink="http://www.w3.org/1999/xlink" xmlns="http://www.w3.org/2000/svg" viewBox="0 0 1000 916.6447195154069" preserveAspectRatio="xMaxYMax slice"><g transform="scale(3.0623931990371838)"><rect x="0" y="0" width="326.5450909090909" height="299.33299999999997" fill="#ffffff"/><rect x="2.721209090909091" y="2.721209090909091" width="21.769672727272727" height="21.769672727272727" fill="#ffffff"/><rect x="2.72" y="2.72" width="10.88" height="10.88" fill="#fcfdff"/><rect x="13.61" y="2.72" width="10.88" height="10.88" fill="#f9fafe"/><rect x="2.72" y="13.61" width="10.88" height="10.88" fill="#f9fafe"/><rect x="29.9333" y="2.721209090909091" width="21.769672727272727" height="21.769672727272727" fill="#ffffff"/><rect x="40.82" y="2.72" width="10.88" height="10.88" fill="#fafafe"/><rect x="29.93" y="13.61" width="10.88" height="10.88" fill="#fffdfe"/><rect x="57.15" y="2.72" width="21.77" height="21.77" fill="#fbfbff"/><rect x="111.57" y="2.72" width="21.77" height="21.77" fill="#ffbfdc"/><rect x="193.21" y="2.72" width="21.77" height="21.77" fill="#fdfeff"/><rect x="220.41793636363636" y="2.721209090909091" width="21.769672727272727" height="21.769672727272727" fill="#ffffff"/><rect x="231.3" y="2.72" width="10.88" height="10.88" fill="#fff5f9"/><rect x="231.3" y="13.61" width="10.88" height="10.88" fill="#ffe8f2"/><rect x="247.63" y="2.72" width="21.77" height="21.77" fill="#ffddec"/><rect x="302.05" y="2.72" width="21.77" height="21.77" fill="#ffffff"/><rect x="2.72" y="29.93" width="21.77" height="21.77" fill="#ffc2dd"/><rect x="29.9333" y="29.9333" width="21.769672727272727" height="21.769672727272727" fill="#ffffff"/><rect x="29.93" y="29.93" width="10.88" height="10.88" fill="#fefeff"/><rect x="40.82" y="29.93" width="10.88" height="10.88" fill="#ffbcda"/><rect x="29.93" y="40.82" width="10.88" height="10.88" fill="#fdfdff"/><rect x="40.82" y="40.82" width="10.88" height="10.88" fill="#fafafe"/><rect x="84.35748181818181" y="29.9333" width="21.769672727272727" height="21.769672727272727" fill="#ffffff"/><rect x="84.36" y="29.93" width="10.88" height="10.88" fill="#ffc3de"/><rect x="95.24" y="29.93" width="10.88" height="10.88" fill="#f9fafe"/><rect x="84.36" y="40.82" width="10.88" height="10.88" fill="#ffcfe4"/><rect x="138.78" y="29.93" width="21.77" height="21.77" fill="#fdfdff"/><rect x="247.63" y="29.93" width="21.77" height="21.77" fill="#ffe1ee"/><rect x="29.93" y="57.15" width="21.77" height="21.77" fill="#ffcee4"/><rect x="57.15" y="57.15" width="21.77" height="21.77" fill="#fffeff"/><rect x="84.36" y="57.15" width="21.77" height="21.77" fill="#fff0f7"/><rect x="111.56957272727271" y="57.14539090909091" width="21.769672727272727" height="21.769672727272727" fill="#ffffff"/><rect x="122.45" y="57.15" width="10.88" height="10.88" fill="#ffe8f2"/><rect x="111.57" y="68.03" width="10.88" height="10.88" fill="#fffbfd"/><rect x="122.45" y="68.03" width="10.88" height="10.88" fill="#fbfcff"/><rect x="138.78166363636365" y="57.14539090909091" width="21.769672727272727" height="21.769672727272727" fill="#ffffff"/><rect x="138.78" y="57.15" width="10.88" height="10.88" fill="#ffedf5"/><rect x="149.67" y="57.15" width="10.88" height="10.88" fill="#fcfcff"/><rect x="138.78" y="68.03" width="10.88" height="10.88" fill="#ffe9f3"/><rect x="165.99" y="57.15" width="21.77" height="21.77" fill="#ffd5e8"/><rect x="220.42" y="57.15" width="21.77" height="21.77" fill="#ffd5e8"/><rect x="29.93" y="84.36" width="21.77" height="21.77" fill="#ffb4d6"/><rect x="84.35748181818181" y="84.35748181818181" width="21.769672727272727" height="21.769672727272727" fill="#ffffff"/><rect x="84.36" y="84.36" width="10.88" height="10.88" fill="#ffe2ef"/><rect x="84.36" y="95.24" width="10.88" height="10.88" fill="#ffe1ee"/><rect x="95.24" y="95.24" width="10.88" height="10.88" fill="#f7f8fe"/><rect x="138.78" y="84.36" width="21.77" height="21.77" fill="#f8f9fe"/><rect x="165.99" y="84.36" width="21.77" height="21.77" fill="#ffd2e6"/><rect x="193.21" y="84.36" width="21.77" height="21.77" fill="#f8f9fe"/><rect x="220.42" y="84.36" width="21.77" height="21.77" fill="#fcfcff"/><rect x="247.63" y="84.36" width="21.77" height="21.77" fill="#ffffff"/><rect x="274.84" y="84.36" width="21.77" height="21.77" fill="#fbfbff"/><rect x="57.15" y="111.57" width="21.77" height="21.77" fill="#fbfcff"/><rect x="84.36" y="111.57" width="21.77" height="21.77" fill="#fdfeff"/><rect x="111.56957272727271" y="111.56957272727271" width="21.769672727272727" height="21.769672727272727" fill="#ffffff"/><rect x="111.57" y="111.57" width="10.88" height="10.88" fill="#ffd0e5"/><rect x="111.57" y="122.45" width="10.88" height="10.88" fill="#f9fafe"/><rect x="122.45" y="122.45" width="10.88" height="10.88" fill="#fdfeff"/><rect x="165.99375454545455" y="111.56957272727271" width="21.769672727272727" height="21.769672727272727" fill="#ffffff"/><rect x="165.99" y="111.57" width="10.88" height="10.88" fill="#ffc8e1"/><rect x="176.88" y="111.57" width="10.88" height="10.88" fill="#fcfcff"/><rect x="165.99" y="122.45" width="10.88" height="10.88" fill="#fbfcff"/><rect x="176.88" y="122.45" width="10.88" height="10.88" fill="#ffffff"/><rect x="193.21" y="111.57" width="21.77" height="21.77" fill="#ffdbeb"/><rect x="220.42" y="111.57" width="21.77" height="21.77" fill="#f7f7fe"/><rect x="274.8421181818182" y="111.56957272727271" width="21.769672727272727" height="21.769672727272727" fill="#ffffff"/><rect x="285.73" y="111.57" width="10.88" height="10.88" fill="#fafbfe"/><rect x="274.84" y="122.45" width="10.88" height="10.88" fill="#ffeaf3"/><rect x="285.73" y="122.45" width="10.88" height="10.88" fill="#ffe7f2"/><rect x="302.05" y="111.57" width="21.77" height="21.77" fill="#f6f7fe"/><rect x="57.15" y="138.78" width="21.77" height="21.77" fill="#f9fafe"/><rect x="84.36" y="138.78" width="21.77" height="21.77" fill="#ffffff"/><rect x="111.57" y="138.78" width="21.77" height="21.77" fill="#fcfcff"/><rect x="165.99" y="138.78" width="21.77" height="21.77" fill="#fbfbff"/><rect x="220.41793636363636" y="138.78166363636365" width="21.769672727272727" height="21.769672727272727" fill="#ffffff"/><rect x="220.42" y="138.78" width="10.88" height="10.88" fill="#ffd7e9"/><rect x="220.42" y="149.67" width="10.88" height="10.88" fill="#fcfcff"/><rect x="274.84" y="138.78" width="21.77" height="21.77" fill="#ffdeed"/><rect x="2.72" y="165.99" width="21.77" height="21.77" fill="#ffdfed"/><rect x="29.93" y="165.99" width="21.77" height="21.77" fill="#fdfdff"/><rect x="57.15" y="165.99" width="21.77" height="21.77" fill="#ffedf5"/><rect x="165.99" y="165.99" width="21.77" height="21.77" fill="#fbfbff"/><rect x="193.21" y="165.99" width="21.77" height="21.77" fill="#f7f8fe"/><rect x="220.41793636363636" y="165.99375454545455" width="21.769672727272727" height="21.769672727272727" fill="#ffffff"/><rect x="220.42" y="165.99" width="10.88" height="10.88" fill="#fdfdff"/><rect x="231.3" y="165.99" width="10.88" height="10.88" fill="#ffcde4"/><rect x="220.42" y="176.88" width="10.88" height="10.88" fill="#ffe1ee"/><rect x="231.3" y="176.88" width="10.88" height="10.88" fill="#fbfcff"/><rect x="247.63" y="165.99" width="21.77" height="21.77" fill="#fbfcff"/><rect x="274.84" y="165.99" width="21.77" height="21.77" fill="#ffb7d7"/><rect x="302.05" y="165.99" width="21.77" height="21.77" fill="#ffd9ea"/><rect x="29.93" y="193.21" width="21.77" height="21.77" fill="#ffdbeb"/><rect x="57.15" y="193.21" width="21.77" height="21.77" fill="#f8f8fe"/><rect x="111.57" y="193.21" width="21.77" height="21.77" fill="#ffcbe2"/><rect x="138.78" y="193.21" width="21.77" height="21.77" fill="#fff4f9"/><rect x="165.99" y="193.21" width="21.77" height="21.77" fill="#ffffff"/><rect x="220.42" y="193.21" width="21.77" height="21.77" fill="#ffc1dd"/><rect x="247.63" y="193.21" width="21.77" height="21.77" fill="#f8f9fe"/><rect x="274.84" y="193.21" width="21.77" height="21.77" fill="#ffcfe4"/><rect x="57.15" y="220.42" width="21.77" height="21.77" fill="#fefeff"/><rect x="138.78" y="220.42" width="21.77" height="21.77" fill="#ffd6e8"/><rect x="165.99" y="220.42" width="21.77" height="21.77" fill="#fbfcff"/><rect x="193.21" y="220.42" width="21.77" height="21.77" fill="#ffbfdc"/><rect x="220.41793636363636" y="220.41793636363636" width="21.769672727272727" height="21.769672727272727" fill="#ffffff"/><rect x="220.42" y="220.42" width="10.88" height="10.88" fill="#ffc7e0"/><rect x="231.3" y="220.42" width="10.88" height="10.88" fill="#f8f9fe"/><rect x="274.84" y="220.42" width="21.77" height="21.77" fill="#fdfdff"/><rect x="302.05420909090907" y="220.41793636363636" width="21.769672727272727" height="21.769672727272727" fill="#ffffff"/><rect x="302.05" y="220.42" width="10.88" height="10.88" fill="#fdfdff"/><rect x="312.94" y="220.42" width="10.88" height="10.88" fill="#ffc5df"/><rect x="312.94" y="231.3" width="10.88" height="10.88" fill="#fcfdff"/><rect x="2.72" y="247.63" width="21.77" height="21.77" fill="#fcfdff"/><rect x="29.93" y="247.63" width="21.77" height="21.77" fill="#ffc9e1"/><rect x="57.15" y="247.63" width="21.77" height="21.77" fill="#ffc1dd"/><rect x="84.36" y="247.63" width="21.77" height="21.77" fill="#fffbfd"/><rect x="138.78" y="247.63" width="21.77" height="21.77" fill="#ffe0ee"/><rect x="165.99375454545455" y="247.63002727272726" width="21.769672727272727" height="21.769672727272727" fill="#ffffff"/><rect x="165.99" y="247.63" width="10.88" height="10.88" fill="#fefeff"/><rect x="176.88" y="258.51" width="10.88" height="10.88" fill="#fefeff"/><rect x="193.21" y="247.63" width="21.77" height="21.77" fill="#ffc8e1"/><rect x="220.42" y="247.63" width="21.77" height="21.77" fill="#fff7fb"/><rect x="274.84" y="247.63" width="21.77" height="21.77" fill="#fdfdff"/><rect x="302.05" y="247.63" width="21.77" height="21.77" fill="#fffafc"/><rect x="2.721209090909091" y="274.8421181818182" width="21.769672727272727" height="21.769672727272727" fill="#ffffff"/><rect x="2.72" y="274.84" width="10.88" height="10.88" fill="#ffe1ee"/><rect x="13.61" y="274.84" width="10.88" height="10.88" fill="#ffdeed"/><rect x="13.61" y="285.73" width="10.88" height="10.88" fill="#fafafe"/><rect x="29.93" y="274.84" width="21.77" height="21.77" fill="#fafbfe"/><rect x="138.78" y="274.84" width="21.77" height="21.77" fill="#f7f8fe"/><rect x="165.99" y="274.84" width="21.77" height="21.77" fill="#fbfbff"/><rect x="247.63002727272726" y="274.8421181818182" width="21.769672727272727" height="21.769672727272727" fill="#ffffff"/><rect x="247.63" y="285.73" width="10.88" height="10.88" fill="#fff1f7"/><rect x="258.51" y="285.73" width="10.88" height="10.88" fill="#fcfdff"/><rect x="274.84" y="274.84" width="21.77" height="21.77" fill="#f9fafe"/></g></svg>