<?xml version="1.0" standalone="no"?><svg xmlns:xlink="http://www.w3.org/1999/xlink" xmlns="http://www.w3.org/2000/svg" viewBox="0 0 1000 916.657193823123" preserveAspectRatio="xMaxYMax slice"><g transform="scale(2.186040817754149)"><rect x="0" y="0" width="457.45418181818184" height="419.33299999999997" fill="#14213d"/><rect x="270.6603909090909" y="3.8121181818181817" width="30.496945454545454" height="30.496945454545454" fill="#14213d"/><rect x="346.9" y="3.81" width="30.5" height="30.5" fill="#575b7a"/><rect x="308.78" y="41.93" width="30.5" height="30.5" fill="#414866"/><rect x="346.9027545454545" y="80.05448181818181" width="30.496945454545454" height="30.496945454545454" fill="#14213d"/><rect x="385.02" y="80.05" width="30.5" height="30.5" fill="#1a2642"/><g transform="translate(80.05,118.18) scale(1.525) rotate(0)"><path d="M10 5L5 0L0 5L5 10L0 15L5 20L10 15L15 20L20 15L15 10L20 5L15 0L10 5Z" fill="#575b7a"/></g><rect x="3.8121181818181817" y="156.29684545454546" width="30.496945454545454" height="30.496945454545454" fill="#14213d"/><rect x="156.29684545454546" y="156.29684545454546" width="30.496945454545454" height="30.496945454545454" fill="#14213d"/><rect x="270.6603909090909" y="156.29684545454546" width="30.496945454545454" height="30.496945454545454" fill="#14213d"/><g transform="translate(270.66,156.3) scale(0.7625) rotate(0)"><path d="M10 5L5 0L0 5L5 10L0 15L5 20L10 15L15 20L20 15L15 10L20 5L15 0L10 5Z" fill="#515675"/></g><rect x="308.78" y="156.3" width="30.5" height="30.5" fill="#444d6d"/><rect x="194.42" y="194.42" width="30.5" height="30.5" fill="#293350"/><g transform="translate(423.15,194.42) scale(1.525) rotate(0)"><path d="M10 5L5 0L0 5L5 10L0 15L5 20L10 15L15 20L20 15L15 10L20 5L15 0L10 5Z" fill="#2e3855"/></g><rect x="270.66" y="232.54" width="30.5" height="30.5" fill="#313c5a"/><rect x="385.0239363636363" y="232.5392090909091" width="30.496945454545454" height="30.496945454545454" fill="#14213d"/><rect x="118.18" y="270.66" width="30.5" height="30.5" fill="#28324f"/><rect x="270.6603909090909" y="346.9027545454545" width="30.496945454545454" height="30.496945454545454" fill="#14213d"/><rect x="194.41802727272727" y="385.0239363636363" width="30.496945454545454" height="30.496945454545454" fill="#14213d"/></g></svg>