<?xml version="1.0" standalone="no"?><svg xmlns:xlink="http://www.w3.org/1999/xlink" xmlns="http://www.w3.org/2000/svg" viewBox="0 0 1500 1374.9857907346848" preserveAspectRatio="xMaxYMax slice"><g transform="scale(3.279061226631224)"><rect x="0" y="0" width="457.45418181818184" height="419.33299999999997" fill="#14213d"/><rect x="3.81" y="3.81" width="30.5" height="30.5" fill="#5c647a"/><rect x="41.9333" y="3.8121181818181817" width="30.496945454545454" height="30.496945454545454" fill="#14213d"/><rect x="118.17566363636364" y="3.8121181818181817" width="30.496945454545454" height="30.496945454545454" fill="#14213d"/><rect x="232.54" y="3.81" width="30.5" height="30.5" fill="#a7aab9"/><rect x="308.78" y="3.81" width="30.5" height="30.5" fill="#d8dbe5"/><g transform="translate(41.93,41.93) scale(1.525) rotate(0)"><path d="M10 5L5 0L0 5L5 10L0 15L5 20L10 15L15 20L20 15L15 10L20 5L15 0L10 5Z" fill="#e2e4ed"/></g><g transform="translate(80.05,41.93) scale(1.525) rotate(0)"><path d="M10 5L5 0L0 5L5 10L0 15L5 20L10 15L15 20L20 15L15 10L20 5L15 0L10 5Z" fill="#bcc0cc"/></g><g transform="translate(118.18,41.93) scale(1.525) rotate(0)"><path d="M10 5L5 0L0 5L5 10L0 15L5 20L10 15L15 20L20 15L15 10L20 5L15 0L10 5Z" fill="#82899b"/></g><rect x="232.54" y="41.93" width="30.5" height="30.5" fill="#16233f"/><rect x="346.9" y="41.93" width="30.5" height="30.5" fill="#b0b3c1"/><rect x="423.15" y="41.93" width="30.5" height="30.5" fill="#777f92"/><rect x="3.8121181818181817" y="80.05448181818181" width="30.496945454545454" height="30.496945454545454" fill="#14213d"/><rect x="3.81" y="80.05" width="15.25" height="15.25" fill="#787f92"/><g transform="translate(3.81,95.3) scale(0.7625) rotate(0)"><path d="M10 5L5 0L0 5L5 10L0 15L5 20L10 15L15 20L20 15L15 10L20 5L15 0L10 5Z" fill="#687084"/></g><g transform="translate(385.02,80.05) scale(1.525) rotate(0)"><path d="M10 5L5 0L0 5L5 10L0 15L5 20L10 15L15 20L20 15L15 10L20 5L15 0L10 5Z" fill="#212e48"/></g><g transform="translate(3.81,118.18) scale(1.525) rotate(0)"><path d="M10 5L5 0L0 5L5 10L0 15L5 20L10 15L15 20L20 15L15 10L20 5L15 0L10 5Z" fill="#49536a"/></g><g transform="translate(41.93,118.18) scale(1.525) rotate(0)"><path d="M10 5L5 0L0 5L5 10L0 15L5 20L10 15L15 20L20 15L15 10L20 5L15 0L10 5Z" fill="#7e8597"/></g><rect x="80.05448181818181" y="118.17566363636364" width="30.496945454545454" height="30.496945454545454" fill="#14213d"/><rect x="95.3" y="118.18" width="15.25" height="15.25" fill="#7f8597"/><rect x="194.42" y="118.18" width="30.5" height="30.5" fill="#4c566d"/><rect x="270.6603909090909" y="118.17566363636364" width="30.496945454545454" height="30.496945454545454" fill="#14213d"/><rect x="270.66" y="118.18" width="15.25" height="15.25" fill="#dadce6"/><g transform="translate(270.66,133.42) scale(0.7625) rotate(0)"><path d="M10 5L5 0L0 5L5 10L0 15L5 20L10 15L15 20L20 15L15 10L20 5L15 0L10 5Z" fill="#9a9eae"/></g><g transform="translate(385.02,118.18) scale(1.525) rotate(0)"><path d="M10 5L5 0L0 5L5 10L0 15L5 20L10 15L15 20L20 15L15 10L20 5L15 0L10 5Z" fill="#bcbecb"/></g><rect x="156.3" y="156.3" width="30.5" height="30.5" fill="#36425a"/><g transform="translate(346.9,156.3) scale(1.525) rotate(0)"><path d="M10 5L5 0L0 5L5 10L0 15L5 20L10 15L15 20L20 15L15 10L20 5L15 0L10 5Z" fill="#29354f"/></g><g transform="translate(385.02,156.3) scale(1.525) rotate(0)"><path d="M10 5L5 0L0 5L5 10L0 15L5 20L10 15L15 20L20 15L15 10L20 5L15 0L10 5Z" fill="#c5c8d4"/></g><rect x="41.9333" y="194.41802727272727" width="30.496945454545454" height="30.496945454545454" fill="#14213d"/><g transform="translate(41.93,209.67) scale(0.7625) rotate(0)"><path d="M10 5L5 0L0 5L5 10L0 15L5 20L10 15L15 20L20 15L15 10L20 5L15 0L10 5Z" fill="#858c9d"/></g><rect x="308.78" y="194.42" width="30.5" height="30.5" fill="#4c566d"/><g transform="translate(346.9,194.42) scale(1.525) rotate(0)"><path d="M10 5L5 0L0 5L5 10L0 15L5 20L10 15L15 20L20 15L15 10L20 5L15 0L10 5Z" fill="#475168"/></g><g transform="translate(423.15,194.42) scale(1.525) rotate(0)"><path d="M10 5L5 0L0 5L5 10L0 15L5 20L10 15L15 20L20 15L15 10L20 5L15 0L10 5Z" fill="#505970"/></g><rect x="156.3" y="232.54" width="30.5" height="30.5" fill="#8990a1"/><rect x="232.54" y="232.54" width="30.5" height="30.5" fill="#172440"/><rect x="308.78" y="232.54" width="30.5" height="30.5" fill="#979dad"/><g transform="translate(385.02,232.54) scale(1.525) rotate(0)"><path d="M10 5L5 0L0 5L5 10L0 15L5 20L10 15L15 20L20 15L15 10L20 5L15 0L10 5Z" fill="#313d56"/></g><g transform="translate(80.05,270.66) scale(1.525) rotate(0)"><path d="M10 5L5 0L0 5L5 10L0 15L5 20L10 15L15 20L20 15L15 10L20 5L15 0L10 5Z" fill="#989eae"/></g><g transform="translate(194.42,270.66) scale(1.525) rotate(0)"><path d="M10 5L5 0L0 5L5 10L0 15L5 20L10 15L15 20L20 15L15 10L20 5L15 0L10 5Z" fill="#d4d6e1"/></g><g transform="translate(423.15,270.66) scale(1.525) rotate(0)"><path d="M10 5L5 0L0 5L5 10L0 15L5 20L10 15L15 20L20 15L15 10L20 5L15 0L10 5Z" fill="#a4a8b7"/></g><g transform="translate(385.02,308.78) scale(1.525) rotate(0)"><path d="M10 5L5 0L0 5L5 10L0 15L5 20L10 15L15 20L20 15L15 10L20 5L15 0L10 5Z" fill="#9499a9"/></g><rect x="423.14511818181813" y="308.7815727272727" width="30.496945454545454" height="30.496945454545454" fill="#14213d"/><rect x="423.15" y="308.78" width="15.25" height="15.25" fill="#1b2843"/><rect x="438.39" y="308.78" width="15.25" height="15.25" fill="#a3a7b6"/><rect x="423.15" y="324.03" width="15.25" height="15.25" fill="#4e586e"/><rect x="438.39" y="324.03" width="15.25" height="15.25" fill="#a5aab9"/><rect x="3.8121181818181817" y="346.9027545454545" width="30.496945454545454" height="30.496945454545454" fill="#14213d"/><g transform="translate(3.81,362.15) scale(0.7625) rotate(0)"><path d="M10 5L5 0L0 5L5 10L0 15L5 20L10 15L15 20L20 15L15 10L20 5L15 0L10 5Z" fill="#969aab"/></g><rect x="19.06" y="362.15" width="15.25" height="15.25" fill="#49536a"/><g transform="translate(232.54,346.9) scale(1.525) rotate(0)"><path d="M10 5L5 0L0 5L5 10L0 15L5 20L10 15L15 20L20 15L15 10L20 5L15 0L10 5Z" fill="#bbbdca"/></g><g transform="translate(41.93,385.02) scale(1.525) rotate(0)"><path d="M10 5L5 0L0 5L5 10L0 15L5 20L10 15L15 20L20 15L15 10L20 5L15 0L10 5Z" fill="#485269"/></g><rect x="118.17566363636364" y="385.0239363636363" width="30.496945454545454" height="30.496945454545454" fill="#14213d"/><rect x="118.18" y="400.27" width="15.25" height="15.25" fill="#d5d8e2"/><rect x="308.78" y="385.02" width="30.5" height="30.5" fill="#465068"/><rect x="423.14511818181813" y="385.0239363636363" width="30.496945454545454" height="30.496945454545454" fill="#14213d"/><g transform="translate(423.15,385.02) scale(0.7625) rotate(0)"><path d="M10 5L5 0L0 5L5 10L0 15L5 20L10 15L15 20L20 15L15 10L20 5L15 0L10 5Z" fill="#eaecf4"/></g><rect x="438.39" y="400.27" width="15.25" height="15.25" fill="#232f4a"/></g></svg>