<?xml version="1.0" standalone="no"?><svg xmlns:xlink="http://www.w3.org/1999/xlink" xmlns="http://www.w3.org/2000/svg" viewBox="0 0 1200 800" preserveAspectRatio="xMaxYMax slice"><g transform="scale(3.3057851239669422)"><rect x="0" y="0" width="363" height="242" fill="#ffffff"/><rect x="3.03" y="3.03" width="24.2" height="24.2" fill="#fefeff"/><rect x="33.28" y="3.03" width="24.2" height="24.2" fill="#ff88bd"/><rect x="93.78" y="3.03" width="24.2" height="24.2" fill="#fff0f7"/><rect x="124.03" y="3.03" width="24.2" height="24.2" fill="#ff3d94"/><rect x="154.28" y="3.03" width="24.2" height="24.2" fill="#ffffff"/><rect x="214.78" y="3.03" width="24.2" height="24.2" fill="#ffffff"/><rect x="305.52" y="3.03" width="24.2" height="24.2" fill="#ff348f"/><rect x="335.775" y="3.0250000000000004" width="24.2" height="24.2" fill="#ffffff"/><rect x="335.78" y="3.03" width="12.1" height="12.1" fill="#f6f7fe"/><rect x="335.78" y="15.13" width="12.1" height="12.1" fill="#fbfbff"/><rect x="347.88" y="15.13" width="12.1" height="12.1" fill="#ff65ab"/><rect x="3.03" y="33.28" width="24.2" height="24.2" fill="#fdfeff"/><rect x="33.28" y="33.28" width="24.2" height="24.2" fill="#ff318e"/><rect x="63.525" y="33.275" width="24.2" height="24.2" fill="#ffffff"/><rect x="63.53" y="33.28" width="12.1" height="12.1" fill="#fdfdff"/><rect x="75.63" y="33.28" width="12.1" height="12.1" fill="#ffdeed"/><rect x="63.53" y="45.38" width="12.1" height="12.1" fill="#ffffff"/><rect x="75.63" y="45.38" width="12.1" height="12.1" fill="#ff4197"/><rect x="124.03" y="33.28" width="24.2" height="24.2" fill="#ff65aa"/><rect x="154.28" y="33.28" width="24.2" height="24.2" fill="#f9f9fe"/><rect x="184.53" y="33.28" width="24.2" height="24.2" fill="#ff4b9c"/><rect x="214.78" y="33.28" width="24.2" height="24.2" fill="#ffffff"/><rect x="245.03" y="33.28" width="24.2" height="24.2" fill="#f7f8fe"/><rect x="305.525" y="33.275" width="24.2" height="24.2" fill="#ffffff"/><rect x="305.52" y="33.28" width="12.1" height="12.1" fill="#fffbfd"/><rect x="317.63" y="45.38" width="12.1" height="12.1" fill="#ffa3cc"/><rect x="3.03" y="63.53" width="24.2" height="24.2" fill="#fcfcff"/><rect x="33.28" y="63.53" width="24.2" height="24.2" fill="#ffffff"/><rect x="184.53" y="63.53" width="24.2" height="24.2" fill="#ff9ac8"/><rect x="214.78" y="63.53" width="24.2" height="24.2" fill="#fff1f7"/><rect x="245.025" y="63.525" width="24.2" height="24.2" fill="#ffffff"/><rect x="245.03" y="63.53" width="12.1" height="12.1" fill="#fdfeff"/><rect x="257.13" y="63.53" width="12.1" height="12.1" fill="#ffe8f2"/><rect x="245.03" y="75.63" width="12.1" height="12.1" fill="#ff6fb0"/><rect x="305.52" y="63.53" width="24.2" height="24.2" fill="#ff67ab"/><rect x="335.775" y="63.525" width="24.2" height="24.2" fill="#ffffff"/><rect x="335.78" y="63.53" width="12.1" height="12.1" fill="#f9fafe"/><rect x="347.88" y="63.53" width="12.1" height="12.1" fill="#ffcee4"/><rect x="335.78" y="75.63" width="12.1" height="12.1" fill="#f8f9fe"/><rect x="347.88" y="75.63" width="12.1" height="12.1" fill="#fafbfe"/><rect x="3.0250000000000004" y="93.775" width="24.2" height="24.2" fill="#ffffff"/><rect x="3.03" y="93.78" width="12.1" height="12.1" fill="#fbfcff"/><rect x="15.13" y="93.78" width="12.1" height="12.1" fill="#fdfdff"/><rect x="33.275" y="93.775" width="24.2" height="24.2" fill="#ffffff"/><rect x="45.38" y="93.78" width="12.1" height="12.1" fill="#f8f9fe"/><rect x="33.28" y="105.88" width="12.1" height="12.1" fill="#fdfdff"/><rect x="93.775" y="93.775" width="24.2" height="24.2" fill="#ffffff"/><rect x="93.78" y="93.78" width="12.1" height="12.1" fill="#fbfcff"/><rect x="93.78" y="105.88" width="12.1" height="12.1" fill="#fbfbff"/><rect x="124.025" y="93.775" width="24.2" height="24.2" fill="#ffffff"/><rect x="154.28" y="93.78" width="24.2" height="24.2" fill="#ff82ba"/><rect x="184.53" y="93.78" width="24.2" height="24.2" fill="#ff66ab"/><rect x="214.78" y="93.78" width="24.2" height="24.2" fill="#fbfbff"/><rect x="245.03" y="93.78" width="24.2" height="24.2" fill="#fbfbff"/><rect x="275.275" y="93.775" width="24.2" height="24.2" fill="#ffffff"/><rect x="287.38" y="93.78" width="12.1" height="12.1" fill="#fafafe"/><rect x="287.38" y="105.88" width="12.1" height="12.1" fill="#fbfbff"/><rect x="305.52" y="93.78" width="24.2" height="24.2" fill="#ff81b9"/><rect x="335.78" y="93.78" width="24.2" height="24.2" fill="#fdfdff"/><rect x="3.03" y="124.03" width="24.2" height="24.2" fill="#fefeff"/><rect x="33.28" y="124.03" width="24.2" height="24.2" fill="#ffa2cc"/><rect x="93.78" y="124.03" width="24.2" height="24.2" fill="#fefeff"/><rect x="124.03" y="124.03" width="24.2" height="24.2" fill="#f8f9fe"/><rect x="184.53" y="124.03" width="24.2" height="24.2" fill="#ff8fc2"/><rect x="214.775" y="124.025" width="24.2" height="24.2" fill="#ffffff"/><rect x="214.78" y="124.03" width="12.1" height="12.1" fill="#fafafe"/><rect x="214.78" y="136.13" width="12.1" height="12.1" fill="#ffe9f3"/><rect x="245.03" y="124.03" width="24.2" height="24.2" fill="#ffcbe2"/><rect x="335.78" y="124.03" width="24.2" height="24.2" fill="#f7f7fe"/><rect x="3.03" y="154.28" width="24.2" height="24.2" fill="#fdfeff"/><rect x="33.28" y="154.28" width="24.2" height="24.2" fill="#fcfcff"/><rect x="63.53" y="154.28" width="24.2" height="24.2" fill="#ff3590"/><rect x="93.78" y="154.28" width="24.2" height="24.2" fill="#ff9bc8"/><rect x="124.025" y="154.275" width="24.2" height="24.2" fill="#ffffff"/><rect x="136.13" y="154.28" width="12.1" height="12.1" fill="#f9fafe"/><rect x="124.03" y="166.38" width="12.1" height="12.1" fill="#fbfcff"/><rect x="136.13" y="166.38" width="12.1" height="12.1" fill="#ffafd3"/><rect x="214.775" y="154.275" width="24.2" height="24.2" fill="#ffffff"/><rect x="214.78" y="166.38" width="12.1" height="12.1" fill="#f6f7fe"/><rect x="226.88" y="166.38" width="12.1" height="12.1" fill="#fff9fc"/><rect x="275.27" y="154.28" width="24.2" height="24.2" fill="#f8f9fe"/><rect x="305.525" y="154.275" width="24.2" height="24.2" fill="#ffffff"/><rect x="305.52" y="154.28" width="12.1" height="12.1" fill="#ffe5f1"/><rect x="317.63" y="154.28" width="12.1" height="12.1" fill="#fdfdff"/><rect x="317.63" y="166.38" width="12.1" height="12.1" fill="#ff3b93"/><rect x="335.78" y="154.28" width="24.2" height="24.2" fill="#fafafe"/><rect x="33.28" y="184.53" width="24.2" height="24.2" fill="#fbfbff"/><rect x="63.525" y="184.525" width="24.2" height="24.2" fill="#ffffff"/><rect x="63.53" y="184.53" width="12.1" height="12.1" fill="#ff338f"/><rect x="75.63" y="184.53" width="12.1" height="12.1" fill="#fcfcff"/><rect x="63.53" y="196.63" width="12.1" height="12.1" fill="#fff5fa"/><rect x="75.63" y="196.63" width="12.1" height="12.1" fill="#ffa9d0"/><rect x="93.78" y="184.53" width="24.2" height="24.2" fill="#ff3c94"/><rect x="124.03" y="184.53" width="24.2" height="24.2" fill="#ff2688"/><rect x="154.28" y="184.53" width="24.2" height="24.2" fill="#fdfdff"/><rect x="184.525" y="184.525" width="24.2" height="24.2" fill="#ffffff"/><rect x="196.63" y="184.53" width="12.1" height="12.1" fill="#f9fafe"/><rect x="214.775" y="184.525" width="24.2" height="24.2" fill="#ffffff"/><rect x="226.88" y="196.63" width="12.1" height="12.1" fill="#ff63a9"/><rect x="275.27" y="184.53" width="24.2" height="24.2" fill="#fff3f8"/><rect x="335.78" y="184.53" width="24.2" height="24.2" fill="#fafbfe"/><rect x="3.03" y="214.78" width="24.2" height="24.2" fill="#ff107b"/><rect x="33.28" y="214.78" width="24.2" height="24.2" fill="#fafbfe"/><rect x="93.78" y="214.78" width="24.2" height="24.2" fill="#ffd2e6"/><rect x="124.03" y="214.78" width="24.2" height="24.2" fill="#fcfcff"/><rect x="154.28" y="214.78" width="24.2" height="24.2" fill="#f6f7fe"/><rect x="184.53" y="214.78" width="24.2" height="24.2" fill="#fcfcff"/><rect x="214.78" y="214.78" width="24.2" height="24.2" fill="#ff1880"/><rect x="245.03" y="214.78" width="24.2" height="24.2" fill="#f9f9fe"/><rect x="275.27" y="214.78" width="24.2" height="24.2" fill="#fafbfe"/><rect x="305.525" y="214.775" width="24.2" height="24.2" fill="#ffffff"/><rect x="317.63" y="214.78" width="12.1" height="12.1" fill="#f6f7fe"/><rect x="335.78" y="214.78" width="24.2" height="24.2" fill="#ff7fb8"/></g></svg>