<?xml version="1.0" standalone="no"?><svg xmlns:xlink="http://www.w3.org/1999/xlink" xmlns="http://www.w3.org/2000/svg" viewBox="0 0 1600 959.9743427844091" preserveAspectRatio="xMaxYMax slice"><g transform="scale(3.2071519488459264)"><rect x="0" y="0" width="498.8883333333333" height="299.33299999999997" fill="#ffffff"/><g transform="translate(0,0) scale(2.4945) rotate(0)"><path d="M10 5L5 0L0 5L5 10L0 15L5 20L10 15L15 20L20 15L15 10L20 5L15 0L10 5Z" fill="#ff7797"/></g><rect x="49.88883333333333" y="0" width="49.88883333333333" height="49.88883333333333" fill="#ffffff"/><g transform="translate(49.89,0) scale(1.247) rotate(0)"><path d="M10 5L5 0L0 5L5 10L0 15L5 20L10 15L15 20L20 15L15 10L20 5L15 0L10 5Z" fill="#f7f8fe"/></g><g transform="translate(74.83,0) scale(1.247) rotate(0)"><path d="M10 5L5 0L0 5L5 10L0 15L5 20L10 15L15 20L20 15L15 10L20 5L15 0L10 5Z" fill="#ffe2e9"/></g><g transform="translate(49.89,24.94) scale(1.247) rotate(0)"><path d="M10 5L5 0L0 5L5 10L0 15L5 20L10 15L15 20L20 15L15 10L20 5L15 0L10 5Z" fill="#ffacc0"/></g><g transform="translate(74.83,24.94) scale(1.247) rotate(0)"><path d="M10 5L5 0L0 5L5 10L0 15L5 20L10 15L15 20L20 15L15 10L20 5L15 0L10 5Z" fill="#f8f9fe"/></g><g transform="translate(99.78,0) scale(2.4945) rotate(0)"><path d="M10 5L5 0L0 5L5 10L0 15L5 20L10 15L15 20L20 15L15 10L20 5L15 0L10 5Z" fill="#f7f8fe"/></g><g transform="translate(149.67,0) scale(2.4945) rotate(0)"><path d="M10 5L5 0L0 5L5 10L0 15L5 20L10 15L15 20L20 15L15 10L20 5L15 0L10 5Z" fill="#fbfcff"/></g><g transform="translate(199.56,0) scale(2.4945) rotate(0)"><path d="M10 5L5 0L0 5L5 10L0 15L5 20L10 15L15 20L20 15L15 10L20 5L15 0L10 5Z" fill="#f7f8fe"/></g><g transform="translate(249.44,0) scale(2.4945) rotate(0)"><path d="M10 5L5 0L0 5L5 10L0 15L5 20L10 15L15 20L20 15L15 10L20 5L15 0L10 5Z" fill="#f8f9fe"/></g><rect x="299.33299999999997" y="0" width="49.88883333333333" height="49.88883333333333" fill="#ffffff"/><g transform="translate(299.33,0) scale(1.247) rotate(0)"><path d="M10 5L5 0L0 5L5 10L0 15L5 20L10 15L15 20L20 15L15 10L20 5L15 0L10 5Z" fill="#ffffff"/></g><g transform="translate(324.28,0) scale(1.247) rotate(0)"><path d="M10 5L5 0L0 5L5 10L0 15L5 20L10 15L15 20L20 15L15 10L20 5L15 0L10 5Z" fill="#f8f9fe"/></g><g transform="translate(299.33,24.94) scale(1.247) rotate(0)"><path d="M10 5L5 0L0 5L5 10L0 15L5 20L10 15L15 20L20 15L15 10L20 5L15 0L10 5Z" fill="#f8f9fe"/></g><g transform="translate(324.28,24.94) scale(1.247) rotate(0)"><path d="M10 5L5 0L0 5L5 10L0 15L5 20L10 15L15 20L20 15L15 10L20 5L15 0L10 5Z" fill="#ff7a9a"/></g><g transform="translate(349.22,0) scale(2.4945) rotate(0)"><path d="M10 5L5 0L0 5L5 10L0 15L5 20L10 15L15 20L20 15L15 10L20 5L15 0L10 5Z" fill="#fffbfc"/></g><g transform="translate(399.11,0) scale(2.4945) rotate(0)"><path d="M10 5L5 0L0 5L5 10L0 15L5 20L10 15L15 20L20 15L15 10L20 5L15 0L10 5Z" fill="#ffb0c3"/></g><rect x="448.99949999999995" y="0" width="49.88883333333333" height="49.88883333333333" fill="#ffffff"/><g transform="translate(449,0) scale(1.247) rotate(0)"><path d="M10 5L5 0L0 5L5 10L0 15L5 20L10 15L15 20L20 15L15 10L20 5L15 0L10 5Z" fill="#ff7798"/></g><g transform="translate(473.94,0) scale(1.247) rotate(0)"><path d="M10 5L5 0L0 5L5 10L0 15L5 20L10 15L15 20L20 15L15 10L20 5L15 0L10 5Z" fill="#fafbfe"/></g><g transform="translate(449,24.94) scale(1.247) rotate(0)"><path d="M10 5L5 0L0 5L5 10L0 15L5 20L10 15L15 20L20 15L15 10L20 5L15 0L10 5Z" fill="#fafbfe"/></g><g transform="translate(473.94,24.94) scale(1.247) rotate(0)"><path d="M10 5L5 0L0 5L5 10L0 15L5 20L10 15L15 20L20 15L15 10L20 5L15 0L10 5Z" fill="#fff9fb"/></g><rect x="0" y="49.88883333333333" width="49.88883333333333" height="49.88883333333333" fill="#ffffff"/><g transform="translate(0,49.89) scale(1.247) rotate(0)"><path d="M10 5L5 0L0 5L5 10L0 15L5 20L10 15L15 20L20 15L15 10L20 5L15 0L10 5Z" fill="#ffc1d0"/></g><g transform="translate(24.94,49.89) scale(1.247) rotate(0)"><path d="M10 5L5 0L0 5L5 10L0 15L5 20L10 15L15 20L20 15L15 10L20 5L15 0L10 5Z" fill="#f6f7fe"/></g><g transform="translate(0,74.83) scale(1.247) rotate(0)"><path d="M10 5L5 0L0 5L5 10L0 15L5 20L10 15L15 20L20 15L15 10L20 5L15 0L10 5Z" fill="#ff7293"/></g><g transform="translate(24.94,74.83) scale(1.247) rotate(0)"><path d="M10 5L5 0L0 5L5 10L0 15L5 20L10 15L15 20L20 15L15 10L20 5L15 0L10 5Z" fill="#ff7c9b"/></g><g transform="translate(49.89,49.89) scale(2.4945) rotate(0)"><path d="M10 5L5 0L0 5L5 10L0 15L5 20L10 15L15 20L20 15L15 10L20 5L15 0L10 5Z" fill="#fafafe"/></g><g transform="translate(99.78,49.89) scale(2.4945) rotate(0)"><path d="M10 5L5 0L0 5L5 10L0 15L5 20L10 15L15 20L20 15L15 10L20 5L15 0L10 5Z" fill="#ff547d"/></g><g transform="translate(149.67,49.89) scale(2.4945) rotate(0)"><path d="M10 5L5 0L0 5L5 10L0 15L5 20L10 15L15 20L20 15L15 10L20 5L15 0L10 5Z" fill="#ff7797"/></g><rect x="199.55533333333332" y="49.88883333333333" width="49.88883333333333" height="49.88883333333333" fill="#ffffff"/><g transform="translate(199.56,49.89) scale(1.247) rotate(0)"><path d="M10 5L5 0L0 5L5 10L0 15L5 20L10 15L15 20L20 15L15 10L20 5L15 0L10 5Z" fill="#ff7293"/></g><g transform="translate(224.5,49.89) scale(1.247) rotate(0)"><path d="M10 5L5 0L0 5L5 10L0 15L5 20L10 15L15 20L20 15L15 10L20 5L15 0L10 5Z" fill="#ffeef2"/></g><g transform="translate(199.56,74.83) scale(1.247) rotate(0)"><path d="M10 5L5 0L0 5L5 10L0 15L5 20L10 15L15 20L20 15L15 10L20 5L15 0L10 5Z" fill="#f7f8fe"/></g><g transform="translate(224.5,74.83) scale(1.247) rotate(0)"><path d="M10 5L5 0L0 5L5 10L0 15L5 20L10 15L15 20L20 15L15 10L20 5L15 0L10 5Z" fill="#ffcdd9"/></g><g transform="translate(249.44,49.89) scale(2.4945) rotate(0)"><path d="M10 5L5 0L0 5L5 10L0 15L5 20L10 15L15 20L20 15L15 10L20 5L15 0L10 5Z" fill="#ffa3b9"/></g><g transform="translate(299.33,49.89) scale(2.4945) rotate(0)"><path d="M10 5L5 0L0 5L5 10L0 15L5 20L10 15L15 20L20 15L15 10L20 5L15 0L10 5Z" fill="#fdfdff"/></g><g transform="translate(349.22,49.89) scale(2.4945) rotate(0)"><path d="M10 5L5 0L0 5L5 10L0 15L5 20L10 15L15 20L20 15L15 10L20 5L15 0L10 5Z" fill="#f7f8fe"/></g><g transform="translate(399.11,49.89) scale(2.4945) rotate(0)"><path d="M10 5L5 0L0 5L5 10L0 15L5 20L10 15L15 20L20 15L15 10L20 5L15 0L10 5Z" fill="#f7f8fe"/></g><g transform="translate(449,49.89) scale(2.4945) rotate(0)"><path d="M10 5L5 0L0 5L5 10L0 15L5 20L10 15L15 20L20 15L15 10L20 5L15 0L10 5Z" fill="#ff89a5"/></g><rect x="0" y="99.77766666666666" width="49.88883333333333" height="49.88883333333333" fill="#ffffff"/><g transform="translate(0,99.78) scale(1.247) rotate(0)"><path d="M10 5L5 0L0 5L5 10L0 15L5 20L10 15L15 20L20 15L15 10L20 5L15 0L10 5Z" fill="#fcfdff"/></g><g transform="translate(24.94,99.78) scale(1.247) rotate(0)"><path d="M10 5L5 0L0 5L5 10L0 15L5 20L10 15L15 20L20 15L15 10L20 5L15 0L10 5Z" fill="#f8f9fe"/></g><g transform="translate(0,124.72) scale(1.247) rotate(0)"><path d="M10 5L5 0L0 5L5 10L0 15L5 20L10 15L15 20L20 15L15 10L20 5L15 0L10 5Z" fill="#fbfcff"/></g><g transform="translate(24.94,124.72) scale(1.247) rotate(0)"><path d="M10 5L5 0L0 5L5 10L0 15L5 20L10 15L15 20L20 15L15 10L20 5L15 0L10 5Z" fill="#ffbaca"/></g><g transform="translate(49.89,99.78) scale(2.4945) rotate(0)"><path d="M10 5L5 0L0 5L5 10L0 15L5 20L10 15L15 20L20 15L15 10L20 5L15 0L10 5Z" fill="#f9fafe"/></g><g transform="translate(99.78,99.78) scale(2.4945) rotate(0)"><path d="M10 5L5 0L0 5L5 10L0 15L5 20L10 15L15 20L20 15L15 10L20 5L15 0L10 5Z" fill="#ff8aa6"/></g><g transform="translate(149.67,99.78) scale(2.4945) rotate(0)"><path d="M10 5L5 0L0 5L5 10L0 15L5 20L10 15L15 20L20 15L15 10L20 5L15 0L10 5Z" fill="#ffedf2"/></g><g transform="translate(199.56,99.78) scale(2.4945) rotate(0)"><path d="M10 5L5 0L0 5L5 10L0 15L5 20L10 15L15 20L20 15L15 10L20 5L15 0L10 5Z" fill="#ff6288"/></g><rect x="249.44416666666666" y="99.77766666666666" width="49.88883333333333" height="49.88883333333333" fill="#ffffff"/><g transform="translate(249.44,99.78) scale(1.247) rotate(0)"><path d="M10 5L5 0L0 5L5 10L0 15L5 20L10 15L15 20L20 15L15 10L20 5L15 0L10 5Z" fill="#ffe1e8"/></g><g transform="translate(274.39,99.78) scale(1.247) rotate(0)"><path d="M10 5L5 0L0 5L5 10L0 15L5 20L10 15L15 20L20 15L15 10L20 5L15 0L10 5Z" fill="#fffefe"/></g><g transform="translate(249.44,124.72) scale(1.247) rotate(0)"><path d="M10 5L5 0L0 5L5 10L0 15L5 20L10 15L15 20L20 15L15 10L20 5L15 0L10 5Z" fill="#fffafb"/></g><g transform="translate(274.39,124.72) scale(1.247) rotate(0)"><path d="M10 5L5 0L0 5L5 10L0 15L5 20L10 15L15 20L20 15L15 10L20 5L15 0L10 5Z" fill="#ffe0e7"/></g><rect x="299.33299999999997" y="99.77766666666666" width="49.88883333333333" height="49.88883333333333" fill="#ffffff"/><g transform="translate(299.33,99.78) scale(1.247) rotate(0)"><path d="M10 5L5 0L0 5L5 10L0 15L5 20L10 15L15 20L20 15L15 10L20 5L15 0L10 5Z" fill="#fafafe"/></g><g transform="translate(324.28,99.78) scale(1.247) rotate(0)"><path d="M10 5L5 0L0 5L5 10L0 15L5 20L10 15L15 20L20 15L15 10L20 5L15 0L10 5Z" fill="#ff7596"/></g><g transform="translate(299.33,124.72) scale(1.247) rotate(0)"><path d="M10 5L5 0L0 5L5 10L0 15L5 20L10 15L15 20L20 15L15 10L20 5L15 0L10 5Z" fill="#ffbfce"/></g><g transform="translate(324.28,124.72) scale(1.247) rotate(0)"><path d="M10 5L5 0L0 5L5 10L0 15L5 20L10 15L15 20L20 15L15 10L20 5L15 0L10 5Z" fill="#ff416e"/></g><g transform="translate(349.22,99.78) scale(2.4945) rotate(0)"><path d="M10 5L5 0L0 5L5 10L0 15L5 20L10 15L15 20L20 15L15 10L20 5L15 0L10 5Z" fill="#ffe4ea"/></g><g transform="translate(399.11,99.78) scale(2.4945) rotate(0)"><path d="M10 5L5 0L0 5L5 10L0 15L5 20L10 15L15 20L20 15L15 10L20 5L15 0L10 5Z" fill="#f8f8fe"/></g><g transform="translate(449,99.78) scale(2.4945) rotate(0)"><path d="M10 5L5 0L0 5L5 10L0 15L5 20L10 15L15 20L20 15L15 10L20 5L15 0L10 5Z" fill="#f9f9fe"/></g><g transform="translate(0,149.67) scale(2.4945) rotate(0)"><path d="M10 5L5 0L0 5L5 10L0 15L5 20L10 15L15 20L20 15L15 10L20 5L15 0L10 5Z" fill="#f8f9fe"/></g><g transform="translate(49.89,149.67) scale(2.4945) rotate(0)"><path d="M10 5L5 0L0 5L5 10L0 15L5 20L10 15L15 20L20 15L15 10L20 5L15 0L10 5Z" fill="#f7f8fe"/></g><g transform="translate(99.78,149.67) scale(2.4945) rotate(0)"><path d="M10 5L5 0L0 5L5 10L0 15L5 20L10 15L15 20L20 15L15 10L20 5L15 0L10 5Z" fill="#ff99b1"/></g><g transform="translate(149.67,149.67) scale(2.4945) rotate(0)"><path d="M10 5L5 0L0 5L5 10L0 15L5 20L10 15L15 20L20 15L15 10L20 5L15 0L10 5Z" fill="#f8f9fe"/></g><rect x="199.55533333333332" y="149.66649999999998" width="49.88883333333333" height="49.88883333333333" fill="#ffffff"/><g transform="translate(199.56,149.67) scale(1.247) rotate(0)"><path d="M10 5L5 0L0 5L5 10L0 15L5 20L10 15L15 20L20 15L15 10L20 5L15 0L10 5Z" fill="#ffffff"/></g><g transform="translate(224.5,149.67) scale(1.247) rotate(0)"><path d="M10 5L5 0L0 5L5 10L0 15L5 20L10 15L15 20L20 15L15 10L20 5L15 0L10 5Z" fill="#f7f8fe"/></g><g transform="translate(199.56,174.61) scale(1.247) rotate(0)"><path d="M10 5L5 0L0 5L5 10L0 15L5 20L10 15L15 20L20 15L15 10L20 5L15 0L10 5Z" fill="#ff819f"/></g><g transform="translate(224.5,174.61) scale(1.247) rotate(0)"><path d="M10 5L5 0L0 5L5 10L0 15L5 20L10 15L15 20L20 15L15 10L20 5L15 0L10 5Z" fill="#ffecf0"/></g><g transform="translate(249.44,149.67) scale(2.4945) rotate(0)"><path d="M10 5L5 0L0 5L5 10L0 15L5 20L10 15L15 20L20 15L15 10L20 5L15 0L10 5Z" fill="#fefeff"/></g><rect x="299.33299999999997" y="149.66649999999998" width="49.88883333333333" height="49.88883333333333" fill="#ffffff"/><g transform="translate(299.33,149.67) scale(1.247) rotate(0)"><path d="M10 5L5 0L0 5L5 10L0 15L5 20L10 15L15 20L20 15L15 10L20 5L15 0L10 5Z" fill="#ff3e6c"/></g><g transform="translate(324.28,149.67) scale(1.247) rotate(0)"><path d="M10 5L5 0L0 5L5 10L0 15L5 20L10 15L15 20L20 15L15 10L20 5L15 0L10 5Z" fill="#ff6186"/></g><g transform="translate(299.33,174.61) scale(1.247) rotate(0)"><path d="M10 5L5 0L0 5L5 10L0 15L5 20L10 15L15 20L20 15L15 10L20 5L15 0L10 5Z" fill="#ffabbf"/></g><g transform="translate(324.28,174.61) scale(1.247) rotate(0)"><path d="M10 5L5 0L0 5L5 10L0 15L5 20L10 15L15 20L20 15L15 10L20 5L15 0L10 5Z" fill="#fdfdff"/></g><rect x="349.22183333333334" y="149.66649999999998" width="49.88883333333333" height="49.88883333333333" fill="#ffffff"/><g transform="translate(349.22,149.67) scale(1.247) rotate(0)"><path d="M10 5L5 0L0 5L5 10L0 15L5 20L10 15L15 20L20 15L15 10L20 5L15 0L10 5Z" fill="#ffacc0"/></g><g transform="translate(374.17,149.67) scale(1.247) rotate(0)"><path d="M10 5L5 0L0 5L5 10L0 15L5 20L10 15L15 20L20 15L15 10L20 5L15 0L10 5Z" fill="#f6f7fe"/></g><g transform="translate(349.22,174.61) scale(1.247) rotate(0)"><path d="M10 5L5 0L0 5L5 10L0 15L5 20L10 15L15 20L20 15L15 10L20 5L15 0L10 5Z" fill="#ff5a81"/></g><g transform="translate(374.17,174.61) scale(1.247) rotate(0)"><path d="M10 5L5 0L0 5L5 10L0 15L5 20L10 15L15 20L20 15L15 10L20 5L15 0L10 5Z" fill="#fdfeff"/></g><g transform="translate(399.11,149.67) scale(2.4945) rotate(0)"><path d="M10 5L5 0L0 5L5 10L0 15L5 20L10 15L15 20L20 15L15 10L20 5L15 0L10 5Z" fill="#ffffff"/></g><g transform="translate(449,149.67) scale(2.4945) rotate(0)"><path d="M10 5L5 0L0 5L5 10L0 15L5 20L10 15L15 20L20 15L15 10L20 5L15 0L10 5Z" fill="#fbfbff"/></g><g transform="translate(0,199.56) scale(2.4945) rotate(0)"><path d="M10 5L5 0L0 5L5 10L0 15L5 20L10 15L15 20L20 15L15 10L20 5L15 0L10 5Z" fill="#ff6a8d"/></g><g transform="translate(49.89,199.56) scale(2.4945) rotate(0)"><path d="M10 5L5 0L0 5L5 10L0 15L5 20L10 15L15 20L20 15L15 10L20 5L15 0L10 5Z" fill="#ff5e85"/></g><g transform="translate(99.78,199.56) scale(2.4945) rotate(0)"><path d="M10 5L5 0L0 5L5 10L0 15L5 20L10 15L15 20L20 15L15 10L20 5L15 0L10 5Z" fill="#ffffff"/></g><g transform="translate(149.67,199.56) scale(2.4945) rotate(0)"><path d="M10 5L5 0L0 5L5 10L0 15L5 20L10 15L15 20L20 15L15 10L20 5L15 0L10 5Z" fill="#fafbfe"/></g><g transform="translate(199.56,199.56) scale(2.4945) rotate(0)"><path d="M10 5L5 0L0 5L5 10L0 15L5 20L10 15L15 20L20 15L15 10L20 5L15 0L10 5Z" fill="#fdfdff"/></g><g transform="translate(249.44,199.56) scale(2.4945) rotate(0)"><path d="M10 5L5 0L0 5L5 10L0 15L5 20L10 15L15 20L20 15L15 10L20 5L15 0L10 5Z" fill="#f8f9fe"/></g><g transform="translate(299.33,199.56) scale(2.4945) rotate(0)"><path d="M10 5L5 0L0 5L5 10L0 15L5 20L10 15L15 20L20 15L15 10L20 5L15 0L10 5Z" fill="#ffb2c5"/></g><g transform="translate(349.22,199.56) scale(2.4945) rotate(0)"><path d="M10 5L5 0L0 5L5 10L0 15L5 20L10 15L15 20L20 15L15 10L20 5L15 0L10 5Z" fill="#ff7495"/></g><g transform="translate(399.11,199.56) scale(2.4945) rotate(0)"><path d="M10 5L5 0L0 5L5 10L0 15L5 20L10 15L15 20L20 15L15 10L20 5L15 0L10 5Z" fill="#ff6287"/></g><g transform="translate(449,199.56) scale(2.4945) rotate(0)"><path d="M10 5L5 0L0 5L5 10L0 15L5 20L10 15L15 20L20 15L15 10L20 5L15 0L10 5Z" fill="#fefeff"/></g><g transform="translate(0,249.44) scale(2.4945) rotate(0)"><path d="M10 5L5 0L0 5L5 10L0 15L5 20L10 15L15 20L20 15L15 10L20 5L15 0L10 5Z" fill="#ff95ae"/></g><g transform="translate(49.89,249.44) scale(2.4945) rotate(0)"><path d="M10 5L5 0L0 5L5 10L0 15L5 20L10 15L15 20L20 15L15 10L20 5L15 0L10 5Z" fill="#ff3766"/></g><rect x="99.77766666666666" y="249.44416666666666" width="49.88883333333333" height="49.88883333333333" fill="#ffffff"/><g transform="translate(99.78,249.44) scale(1.247) rotate(0)"><path d="M10 5L5 0L0 5L5 10L0 15L5 20L10 15L15 20L20 15L15 10L20 5L15 0L10 5Z" fill="#ff96af"/></g><g transform="translate(124.72,249.44) scale(1.247) rotate(0)"><path d="M10 5L5 0L0 5L5 10L0 15L5 20L10 15L15 20L20 15L15 10L20 5L15 0L10 5Z" fill="#ff5079"/></g><g transform="translate(99.78,274.39) scale(1.247) rotate(0)"><path d="M10 5L5 0L0 5L5 10L0 15L5 20L10 15L15 20L20 15L15 10L20 5L15 0L10 5Z" fill="#f9fafe"/></g><g transform="translate(124.72,274.39) scale(1.247) rotate(0)"><path d="M10 5L5 0L0 5L5 10L0 15L5 20L10 15L15 20L20 15L15 10L20 5L15 0L10 5Z" fill="#f6f7fe"/></g><g transform="translate(149.67,249.44) scale(2.4945) rotate(0)"><path d="M10 5L5 0L0 5L5 10L0 15L5 20L10 15L15 20L20 15L15 10L20 5L15 0L10 5Z" fill="#ffe6ec"/></g><g transform="translate(199.56,249.44) scale(2.4945) rotate(0)"><path d="M10 5L5 0L0 5L5 10L0 15L5 20L10 15L15 20L20 15L15 10L20 5L15 0L10 5Z" fill="#ff7c9b"/></g><rect x="249.44416666666666" y="249.44416666666666" width="49.88883333333333" height="49.88883333333333" fill="#ffffff"/><g transform="translate(249.44,249.44) scale(1.247) rotate(0)"><path d="M10 5L5 0L0 5L5 10L0 15L5 20L10 15L15 20L20 15L15 10L20 5L15 0L10 5Z" fill="#fefeff"/></g><g transform="translate(274.39,249.44) scale(1.247) rotate(0)"><path d="M10 5L5 0L0 5L5 10L0 15L5 20L10 15L15 20L20 15L15 10L20 5L15 0L10 5Z" fill="#ff3968"/></g><g transform="translate(249.44,274.39) scale(1.247) rotate(0)"><path d="M10 5L5 0L0 5L5 10L0 15L5 20L10 15L15 20L20 15L15 10L20 5L15 0L10 5Z" fill="#fafbfe"/></g><g transform="translate(274.39,274.39) scale(1.247) rotate(0)"><path d="M10 5L5 0L0 5L5 10L0 15L5 20L10 15L15 20L20 15L15 10L20 5L15 0L10 5Z" fill="#f6f7fe"/></g><rect x="299.33299999999997" y="249.44416666666666" width="49.88883333333333" height="49.88883333333333" fill="#ffffff"/><g transform="translate(299.33,249.44) scale(1.247) rotate(0)"><path d="M10 5L5 0L0 5L5 10L0 15L5 20L10 15L15 20L20 15L15 10L20 5L15 0L10 5Z" fill="#ffa4b9"/></g><g transform="translate(324.28,249.44) scale(1.247) rotate(0)"><path d="M10 5L5 0L0 5L5 10L0 15L5 20L10 15L15 20L20 15L15 10L20 5L15 0L10 5Z" fill="#f6f7fe"/></g><g transform="translate(299.33,274.39) scale(1.247) rotate(0)"><path d="M10 5L5 0L0 5L5 10L0 15L5 20L10 15L15 20L20 15L15 10L20 5L15 0L10 5Z" fill="#ffbccc"/></g><g transform="translate(324.28,274.39) scale(1.247) rotate(0)"><path d="M10 5L5 0L0 5L5 10L0 15L5 20L10 15L15 20L20 15L15 10L20 5L15 0L10 5Z" fill="#f9f9fe"/></g><g transform="translate(349.22,249.44) scale(2.4945) rotate(0)"><path d="M10 5L5 0L0 5L5 10L0 15L5 20L10 15L15 20L20 15L15 10L20 5L15 0L10 5Z" fill="#fafafe"/></g><g transform="translate(399.11,249.44) scale(2.4945) rotate(0)"><path d="M10 5L5 0L0 5L5 10L0 15L5 20L10 15L15 20L20 15L15 10L20 5L15 0L10 5Z" fill="#ffd1dc"/></g><rect x="448.99949999999995" y="249.44416666666666" width="49.88883333333333" height="49.88883333333333" fill="#ffffff"/><g transform="translate(449,249.44) scale(1.247) rotate(0)"><path d="M10 5L5 0L0 5L5 10L0 15L5 20L10 15L15 20L20 15L15 10L20 5L15 0L10 5Z" fill="#f7f8fe"/></g><g transform="translate(473.94,249.44) scale(1.247) rotate(0)"><path d="M10 5L5 0L0 5L5 10L0 15L5 20L10 15L15 20L20 15L15 10L20 5L15 0L10 5Z" fill="#f9fafe"/></g><g transform="translate(449,274.39) scale(1.247) rotate(0)"><path d="M10 5L5 0L0 5L5 10L0 15L5 20L10 15L15 20L20 15L15 10L20 5L15 0L10 5Z" fill="#ffd8e1"/></g><g transform="translate(473.94,274.39) scale(1.247) rotate(0)"><path d="M10 5L5 0L0 5L5 10L0 15L5 20L10 15L15 20L20 15L15 10L20 5L15 0L10 5Z" fill="#ffc0cf"/></g></g></svg>